<svg width="126" height="96" viewBox="0 0 126 96" fill="none" xmlns="http://www.w3.org/2000/svg">
<path d="M96.2187 87.6608C95.5824 90.3898 95.2559 92.0518 93.8978 93.8862C92.9924 95.1095 91.5097 95.8115 89.9989 95.6346C88.686 95.4814 87.4149 94.9184 86.1368 94.4261C71.3568 88.7342 59.4288 78.7122 47.3782 68.8744C44.5059 66.5296 38.4447 61.101 35.0024 58.2491C43.383 52.3209 46.8523 48.6545 46.8523 48.6545C60.3568 60.3857 76.1016 74.1188 92.5334 80.9878C95.1518 82.0828 97.6018 81.7281 96.2187 87.6608Z" fill="#1A1627"/>
<path d="M79.5165 43.5694C75.7148 40.5633 69.0654 35.5724 65.3114 32.6749C55.772 25.3121 45.5984 19.1673 33.9272 15.666C27.6058 13.7696 26.7756 7.41205 31.5548 1.79629C32.4234 0.775426 33.7814 0.105327 35.0933 0.37995C56.8306 4.93357 73.2805 18.2609 91.5986 35.0811C85.4009 38.3574 79.5165 43.5694 79.5165 43.5694Z" fill="#1A1627"/>
<path d="M66.422 59.3543C79.9947 45.6084 106.348 28.9999 119.638 28.3893C121.191 28.318 122.667 29.0952 123.483 30.4197C124.792 32.5445 125.215 35.0883 125.606 37.5899C125.983 40.0069 124.724 42.0698 122.433 42.7119C106.555 47.1619 91.1356 57.9812 78.6195 68.3107C74.4098 66.3216 66.422 59.3543 66.422 59.3543Z" fill="#1A1627"/>
<path d="M59.0135 33.3228C43.4219 46.3494 26.5036 61.8914 8.214 67.4556C6.66985 67.9252 4.96516 67.5376 3.85456 66.3659C2.3605 64.7894 1.7885 63.1672 1.18263 61.5883C-0.933508 56.0717 -0.333527 54.4584 5.14486 52.3489C18.0047 47.3958 28.7047 39.1645 39.057 30.3658C40.6248 29.0335 43.7342 26.4754 45.4492 25.0645C51.1205 26.5854 59.0135 33.3228 59.0135 33.3228Z" fill="#1A1627"/>
<path d="M30.9235 81.3906C35.3949 79.0978 42.2785 76.3918 46.7661 73.8691C50.391 77.0673 58.7838 83.4382 58.7838 83.4382C52.6981 87.5089 42.9919 93.5697 36.2345 95.3182C34.601 95.7412 32.8663 95.105 31.8343 93.7692C29.8586 91.2111 28.7161 88.4954 28.6179 85.2638C28.5688 83.6426 29.4815 82.1299 30.9235 81.3906Z" fill="#1A1627"/>
<path d="M67.1771 10.0282C75.1679 5.19212 84.1587 1.56062 90.3196 0.241544C92.014 -0.121017 93.7845 0.619334 94.7144 2.08235C96.4824 4.86346 97.2174 7.65832 97.0367 10.7155C96.9479 12.2237 96.1122 13.5924 94.7875 14.3161C90.9225 16.4281 84.0385 18.0748 80.0821 19.8026C80.0821 19.8026 73.1053 13.9137 67.1771 10.0282Z" fill="#1A1627"/>
<path d="M114.714 49.981C125.505 54.175 129.486 55.5972 121.613 66.4789C120.69 67.7543 119.223 67.7626 117.691 67.4006C112.781 66.2402 104.068 61.2164 99.2441 58.4088C108.135 52.2546 114.714 49.981 114.714 49.981Z" fill="#1A1627"/>
<path d="M12.4732 45.1054C9.80814 44.343 4.73775 43.5383 2.4159 42.1234C1.36617 41.4838 0.660141 40.37 0.50941 39.1497C0.127916 36.064 0.919871 33.2849 2.42375 30.4885C3.24566 28.9612 4.92335 28.0774 6.6467 28.2685C11.8217 28.8438 21.1739 32.7568 26.2369 35.0731C18.9046 41.8291 12.4732 45.1054 12.4732 45.1054Z" fill="#1A1627"/>
</svg>
