<svg width="187" height="199" viewBox="0 0 187 199" fill="none" xmlns="http://www.w3.org/2000/svg">
<path d="M73.432 168.6C113.681 168.6 146.309 133.055 146.309 89.2069C146.309 45.3592 113.681 9.8136 73.432 9.8136C33.1835 9.8136 0.555542 45.3592 0.555542 89.2069C0.555542 133.055 33.1835 168.6 73.432 168.6Z" fill="#E5EFEF"/>
<path d="M140.027 196.214V103.507L158.857 126.683L184.386 98.8713L150.949 47.8731C148.131 43.5745 144.411 40.071 140.1 37.6538C135.789 35.2366 131.01 33.9757 126.161 33.9758H63.9057C59.0569 33.9757 54.2782 35.2366 49.9669 37.6538C45.6556 40.071 41.9362 43.5745 39.1182 47.8731L5.68054 98.8713L31.2095 126.683L48.2309 103.507V196.214H140.027Z" fill="white" stroke="#4C241D" stroke-width="4.98191" stroke-linecap="round" stroke-linejoin="round"/>
<path d="M162.207 2.90942V9.81319" stroke="#4C241D" stroke-width="4.98191" stroke-linecap="round" stroke-linejoin="round"/>
<path d="M162.207 23.621V30.5248" stroke="#4C241D" stroke-width="4.98191" stroke-linecap="round" stroke-linejoin="round"/>
<path d="M149.533 16.7169H155.87" stroke="#4C241D" stroke-width="4.98191" stroke-linecap="round" stroke-linejoin="round"/>
<path d="M168.544 16.7169H174.881" stroke="#4C241D" stroke-width="4.98191" stroke-linecap="round" stroke-linejoin="round"/>
<path d="M184.83 56.7582C184.83 57.488 184.631 58.2014 184.259 58.8083C183.887 59.4151 183.358 59.8881 182.739 60.1674C182.12 60.4466 181.439 60.5197 180.782 60.3773C180.125 60.235 179.521 59.8835 179.048 59.3675C178.574 58.8514 178.251 58.1939 178.121 57.4781C177.99 56.7623 178.057 56.0203 178.313 55.3461C178.57 54.6718 179.004 54.0955 179.561 53.69C180.118 53.2845 180.773 53.0681 181.443 53.0681C181.888 53.0681 182.328 53.1636 182.739 53.349C183.15 53.5344 183.523 53.8063 183.838 54.1489C184.152 54.4916 184.402 54.8984 184.572 55.3461C184.742 55.7938 184.83 56.2736 184.83 56.7582Z" fill="#4C241D"/>
<path d="M26.4549 191.382C26.4549 192.112 26.2562 192.825 25.8841 193.432C25.5119 194.039 24.9829 194.512 24.3639 194.791C23.745 195.07 23.064 195.144 22.4069 195.001C21.7499 194.859 21.1463 194.507 20.6726 193.991C20.1989 193.475 19.8763 192.818 19.7456 192.102C19.6149 191.386 19.682 190.644 19.9384 189.97C20.1947 189.296 20.6289 188.719 21.1859 188.314C21.7429 187.908 22.3978 187.692 23.0677 187.692C23.9661 187.692 24.8276 188.081 25.4628 188.773C26.098 189.465 26.4549 190.403 26.4549 191.382Z" fill="#4C241D"/>
<path d="M94.9541 61.7877C89.312 61.7877 83.901 59.346 79.9114 54.9997C75.9219 50.6533 73.6805 44.7584 73.6805 38.6118V33.9759H116.228V38.6118C116.228 44.7584 113.986 50.6533 109.997 54.9997C106.007 59.346 100.596 61.7877 94.9541 61.7877Z" fill="#EDEBDC" stroke="#4C241D" stroke-width="4.98191" stroke-linecap="round" stroke-linejoin="round"/>
<path d="M14.8519 165.148C19.2267 165.148 22.7733 161.284 22.7733 156.518C22.7733 151.752 19.2267 147.889 14.8519 147.889C10.4771 147.889 6.93054 151.752 6.93054 156.518C6.93054 161.284 10.4771 165.148 14.8519 165.148Z" stroke="#4C241D" stroke-width="4.98191" stroke-linecap="round" stroke-linejoin="round"/>
<path d="M106.63 127.906C104.15 127.908 101.697 127.351 99.4249 126.269C103.607 121.352 105.93 114.895 105.93 108.192C105.93 101.488 103.607 95.032 99.4249 90.1144C103.65 88.1098 108.419 87.9408 112.755 89.642C117.091 91.3433 120.667 94.786 122.749 99.2653L129.358 98.1849C128.036 94.6028 126.016 91.3765 123.436 88.7291C120.857 86.0817 117.78 84.0766 114.419 82.8523C111.058 81.6281 107.493 81.2141 103.971 81.6389C100.449 82.0638 97.0531 83.3173 94.0193 85.3128C90.9858 83.3172 87.5905 82.0635 84.0683 81.6385C80.5462 81.2134 76.9813 81.6271 73.6204 82.851C70.2595 84.0749 67.1828 86.0797 64.6032 88.7267C62.0237 91.3737 60.0028 94.5997 58.6805 98.1814L65.2901 99.2619C67.3721 94.7826 70.9472 91.3398 75.2832 89.6386C79.6193 87.9373 84.3883 88.1063 88.6138 90.1109C84.432 95.0285 82.1087 101.485 82.1087 108.188C82.1087 114.892 84.432 121.348 88.6138 126.266C84.6233 128.158 80.14 128.416 75.9886 126.993C71.8372 125.571 68.2969 122.563 66.0189 118.523L59.2731 119.628C60.7316 123 62.8237 126.001 65.4141 128.436C68.0045 130.872 71.0354 132.688 74.3107 133.766C77.586 134.845 81.0326 135.162 84.4276 134.698C87.8227 134.234 91.0904 132.998 94.0193 131.071C96.9481 132.998 100.216 134.234 103.61 134.699C107.005 135.163 110.452 134.846 113.727 133.768C117.002 132.689 120.033 130.874 122.624 128.439C125.214 126.004 127.307 123.003 128.766 119.631L122.02 118.527C120.404 121.393 118.141 123.76 115.447 125.401C112.753 127.043 109.717 127.906 106.63 127.906ZM88.5346 108.192C88.5333 105.558 89.0183 102.95 89.9605 100.524C90.9027 98.0983 92.283 95.9035 94.0193 94.0703C95.7546 95.9043 97.1341 98.0993 98.0762 100.525C99.0183 102.951 99.5038 105.558 99.5038 108.192C99.5038 110.826 99.0183 113.433 98.0762 115.859C97.1341 118.284 95.7546 120.479 94.0193 122.314C92.283 120.48 90.9027 118.286 89.9605 115.86C89.0183 113.434 88.5333 110.826 88.5346 108.192Z" fill="#4C241D"/>
</svg>
