<svg width="25" height="26" viewBox="0 0 25 26" fill="none" xmlns="http://www.w3.org/2000/svg">
<path d="M24.883 13.3244C24.883 6.45127 19.31 0.882935 12.4415 0.882935C5.56834 0.882935 0 6.45127 0 13.3244C0 19.5327 4.54814 24.6804 10.4975 25.6127V16.9216H7.33814V13.3252H10.4975V10.5826C10.4975 7.46525 12.3521 5.74366 15.1949 5.74366C16.5565 5.74366 17.9818 5.98627 17.9818 5.98627V9.04765H16.4103C14.8676 9.04765 14.3855 10.008 14.3855 10.9916V13.3244H17.8356L17.2812 16.9208H14.3855V25.6119C20.3302 24.6796 24.883 19.5319 24.883 13.3236V13.3244Z" fill="black"/>
</svg>
