<svg width="130" height="139" viewBox="0 0 130 139" fill="none" xmlns="http://www.w3.org/2000/svg">
<path d="M50.4643 116.778C78.2255 116.778 100.73 92.3452 100.73 62.2062C100.73 32.0671 78.2255 7.63464 50.4643 7.63464C22.7031 7.63464 0.198242 32.0671 0.198242 62.2062C0.198242 92.3452 22.7031 116.778 50.4643 116.778Z" fill="#E5EFEF"/>
<path d="M96.3595 135.764V72.0408L109.348 87.971L126.956 68.8543L103.893 33.8004C101.949 30.8458 99.3837 28.4376 96.41 26.7761C93.4363 25.1147 90.1402 24.2479 86.7958 24.248H43.8555C40.5111 24.2479 37.215 25.1147 34.2413 26.7761C31.2676 28.4376 28.7022 30.8458 26.7585 33.8004L3.69507 68.8543L21.3035 87.971L33.0439 72.0408V135.764H96.3595Z" fill="white" stroke="#4C241D" stroke-width="4.98191" stroke-linecap="round" stroke-linejoin="round"/>
<path d="M111.658 2.88867V7.63402" stroke="#4C241D" stroke-width="4.98191" stroke-linecap="round" stroke-linejoin="round"/>
<path d="M111.658 17.123V21.8684" stroke="#4C241D" stroke-width="4.98191" stroke-linecap="round" stroke-linejoin="round"/>
<path d="M102.916 12.3809H107.287" stroke="#4C241D" stroke-width="4.98191" stroke-linecap="round" stroke-linejoin="round"/>
<path d="M116.029 12.3809H120.4" stroke="#4C241D" stroke-width="4.98191" stroke-linecap="round" stroke-linejoin="round"/>
<path d="M127.286 39.9025C127.286 40.4041 127.149 40.8945 126.892 41.3116C126.636 41.7287 126.271 42.0538 125.844 42.2458C125.417 42.4378 124.947 42.488 124.494 42.3901C124.041 42.2923 123.625 42.0507 123.298 41.696C122.971 41.3413 122.749 40.8893 122.659 40.3973C122.568 39.9053 122.615 39.3953 122.791 38.9318C122.968 38.4684 123.268 38.0722 123.652 37.7935C124.036 37.5148 124.488 37.3661 124.95 37.3661C125.257 37.3661 125.561 37.4317 125.844 37.5592C126.127 37.6866 126.385 37.8735 126.602 38.109C126.819 38.3445 126.991 38.6241 127.108 38.9318C127.226 39.2396 127.286 39.5694 127.286 39.9025Z" fill="#4C241D"/>
<path d="M18.0122 132.437C18.0122 132.938 17.8751 133.429 17.6184 133.846C17.3617 134.263 16.9968 134.588 16.5699 134.78C16.143 134.972 15.6733 135.022 15.2201 134.924C14.7669 134.826 14.3506 134.585 14.0239 134.23C13.6971 133.875 13.4746 133.423 13.3845 132.931C13.2943 132.439 13.3406 131.929 13.5174 131.466C13.6943 131.002 13.9937 130.606 14.3779 130.328C14.7621 130.049 15.2138 129.9 15.6759 129.9C16.2955 129.9 16.8897 130.167 17.3279 130.643C17.766 131.119 18.0122 131.764 18.0122 132.437Z" fill="#4C241D"/>
<path d="M65.3257 43.3592C61.4341 43.3592 57.7018 41.6808 54.9501 38.6934C52.1983 35.7059 50.6523 31.654 50.6523 27.4291V24.2426H79.999V27.4291C79.999 31.654 78.4531 35.7059 75.7013 38.6934C72.9495 41.6808 69.2173 43.3592 65.3257 43.3592Z" fill="#EDEBDC" stroke="#4C241D" stroke-width="4.98191" stroke-linecap="round" stroke-linejoin="round"/>
<path d="M10.0329 114.405C13.0504 114.405 15.4966 111.749 15.4966 108.473C15.4966 105.197 13.0504 102.542 10.0329 102.542C7.0154 102.542 4.56921 105.197 4.56921 108.473C4.56921 111.749 7.0154 114.405 10.0329 114.405Z" stroke="#4C241D" stroke-width="4.98191" stroke-linecap="round" stroke-linejoin="round"/>
<path d="M73.3682 88.8061C71.6579 88.8075 69.9658 88.4246 68.3984 87.6814C71.2828 84.3013 72.8852 79.8635 72.8852 75.2557C72.8852 70.648 71.2828 66.2102 68.3984 62.8301C71.3129 61.4522 74.6023 61.336 77.593 62.5054C80.5838 63.6747 83.0497 66.0411 84.4857 69.12L89.0446 68.3774C88.1328 65.9152 86.7391 63.6976 84.96 61.8779C83.1808 60.0582 81.0588 58.6799 78.7406 57.8384C76.4224 56.997 73.9635 56.7124 71.534 57.0044C69.1045 57.2964 66.7625 58.158 64.67 59.5297C62.5776 58.158 60.2357 57.2962 57.8063 57.0041C55.377 56.7119 52.9181 56.9963 50.5999 57.8375C48.2818 58.6787 46.1597 60.0568 44.3804 61.8762C42.6012 63.6956 41.2073 65.913 40.2953 68.375L44.8542 69.1176C46.2902 66.0388 48.7561 63.6724 51.7469 62.503C54.7377 61.3336 58.0271 61.4498 60.9415 62.8277C58.0572 66.2078 56.4547 70.6457 56.4547 75.2534C56.4547 79.8611 58.0572 84.2989 60.9415 87.6791C58.1891 88.9793 55.0968 89.1569 52.2334 88.1791C49.37 87.2013 46.9281 85.1339 45.3569 82.3572L40.704 83.1164C41.71 85.4342 43.153 87.4968 44.9397 89.1708C46.7264 90.8449 48.817 92.093 51.0761 92.8344C53.3352 93.5758 55.7125 93.794 58.0542 93.4749C60.3959 93.1558 62.6497 92.3064 64.67 90.9818C66.6901 92.3065 68.9438 93.156 71.2854 93.4753C73.627 93.7945 76.0042 93.5765 78.2633 92.8354C80.5224 92.0942 82.613 90.8463 84.3998 89.1725C86.1865 87.4988 87.6297 85.4364 88.636 83.1188L83.9831 82.3595C82.8687 84.3294 81.3079 85.9563 79.4496 87.0849C77.5913 88.2134 75.4975 88.806 73.3682 88.8061ZM60.8869 75.2557C60.8861 73.4451 61.2205 71.6528 61.8704 69.9853C62.5203 68.3178 63.4723 66.8092 64.67 65.5491C65.8668 66.8098 66.8184 68.3186 67.4682 69.9859C68.118 71.6533 68.4528 73.4453 68.4528 75.2557C68.4528 77.0662 68.118 78.8582 67.4682 80.5256C66.8184 82.1929 65.8668 83.7017 64.67 84.9624C63.4723 83.7023 62.5203 82.1937 61.8704 80.5262C61.2205 78.8587 60.8861 77.0664 60.8869 75.2557Z" fill="#4C241D"/>
</svg>
