<svg width="24" height="26" viewBox="0 0 24 26" fill="none" xmlns="http://www.w3.org/2000/svg">
<path d="M22.2507 11.3193L22.2507 11.3193L3.75461 0.961589L3.7546 0.961584C3.3901 0.757482 2.97198 0.669493 2.55614 0.709373C2.14029 0.749254 1.74653 0.915105 1.42746 1.18476C1.10839 1.45442 0.879232 1.81504 0.770597 2.21842C0.661963 2.6218 0.679032 3.04873 0.819525 3.44215L0.819528 3.44216L4.27229 13.1098L0.819528 22.7774L0.819354 22.7779C0.709427 23.0874 0.675229 23.4187 0.719623 23.7441C0.764016 24.0696 0.885708 24.3796 1.07452 24.6483C1.26332 24.9171 1.51375 25.1367 1.80485 25.2888C2.09594 25.4409 2.41923 25.521 2.74765 25.5225L2.74958 25.5225C3.10192 25.5219 3.44818 25.4307 3.75515 25.2578C3.75524 25.2577 3.75534 25.2577 3.75543 25.2576L22.2506 14.9003L22.104 14.6385L22.2506 14.9003C22.5689 14.722 22.8339 14.4622 23.0183 14.1475C23.2028 13.8328 23.3 13.4746 23.3 13.1098C23.3 12.7451 23.2028 12.3869 23.0184 12.0722C22.8339 11.7575 22.569 11.4976 22.2507 11.3193ZM6.34986 11.9338L3.30452 3.40524L20.634 13.1098L3.30403 22.8139L6.3498 14.2858H12.529C12.8409 14.2858 13.14 14.1619 13.3606 13.9414C13.5811 13.7208 13.705 13.4217 13.705 13.1098C13.705 12.7979 13.5811 12.4988 13.3606 12.2782C13.14 12.0577 12.8409 11.9338 12.529 11.9338H6.34986Z" fill="white" stroke="white" stroke-width="0.6"/>
</svg>
