<svg width="17" height="19" viewBox="0 0 17 19" fill="none" xmlns="http://www.w3.org/2000/svg">
<path d="M15.5358 7.95262L15.5358 7.95264C15.7676 8.08247 15.9606 8.27174 16.0949 8.50096C16.2292 8.73017 16.3 8.99104 16.3 9.25671C16.3 9.52238 16.2292 9.78325 16.0948 10.0125C15.9605 10.2417 15.7675 10.4309 15.5357 10.5607L15.5357 10.5607L2.92557 17.6224C2.92551 17.6225 2.92545 17.6225 2.92539 17.6225C2.70183 17.7485 2.44967 17.8149 2.19307 17.8154L2.19114 17.8154C1.95197 17.8143 1.71654 17.7559 1.50455 17.6451C1.29257 17.5344 1.1102 17.3745 0.972702 17.1787C0.972702 17.1787 0.972702 17.1787 0.972701 17.1787L1.21793 17.0065L15.5358 7.95262ZM15.5358 7.95262L2.92478 0.890526L2.92477 0.89052M15.5358 7.95262L2.92477 0.89052M2.92477 0.89052C2.65929 0.741866 2.35477 0.67778 2.05189 0.706827C1.74902 0.735873 1.46222 0.856669 1.22983 1.05307C0.997448 1.24947 0.830541 1.51212 0.751418 1.80592C0.672296 2.09971 0.684729 2.41066 0.787054 2.6972L0.787058 2.69721M2.92477 0.89052L0.787058 2.69721M0.787058 2.69721L3.12975 9.25668L0.787058 2.69721ZM4.71491 8.35941L2.74678 2.84763L14.1915 9.25667L2.74647 15.6654L4.71486 10.154H8.86069C9.09866 10.154 9.32689 10.0594 9.49516 9.89115C9.66343 9.72288 9.75796 9.49465 9.75796 9.25668C9.75796 9.01871 9.66343 8.79049 9.49516 8.62222C9.32689 8.45395 9.09866 8.35941 8.86069 8.35941H4.71491Z" fill="white" stroke="white" stroke-width="0.6"/>
</svg>
