<svg width="29" height="30" viewBox="0 0 29 30" fill="none" xmlns="http://www.w3.org/2000/svg">
<path d="M22.3495 5.67358H5.88152C4.94561 5.67358 4.04803 6.04559 3.38624 6.70778C2.72445 7.36996 2.35266 8.26807 2.35266 9.20454V20.9744C2.35266 21.9109 2.72445 22.809 3.38624 23.4712C4.04803 24.1333 4.94561 24.5053 5.88152 24.5053H22.3495C23.2854 24.5053 24.183 24.1333 24.8448 23.4712C25.5066 22.809 25.8784 21.9109 25.8784 20.9744V9.20454C25.8784 8.26807 25.5066 7.36996 24.8448 6.70778C24.183 6.04559 23.2854 5.67358 22.3495 5.67358ZM21.5614 8.02755L14.1155 13.6182L6.66963 8.02755H21.5614ZM22.3495 22.1514H5.88152C5.56955 22.1514 5.27036 22.0274 5.04976 21.8066C4.82916 21.5859 4.70523 21.2865 4.70523 20.9744V9.49879L13.4098 16.0311C13.6134 16.1839 13.861 16.2664 14.1155 16.2664C14.37 16.2664 14.6177 16.1839 14.8213 16.0311L23.5258 9.49879V20.9744C23.5258 21.2865 23.4019 21.5859 23.1813 21.8066C22.9607 22.0274 22.6615 22.1514 22.3495 22.1514Z" fill="#231F20"/>
</svg>
