<svg width="29" height="22" viewBox="0 0 29 22" fill="none" xmlns="http://www.w3.org/2000/svg">
<path d="M13.7412 5.69862L4.70552 13.1449V21.1817C4.70552 21.3897 4.78813 21.5893 4.93518 21.7364C5.08224 21.8836 5.28168 21.9662 5.48965 21.9662L10.9815 21.952C11.1888 21.951 11.3872 21.8679 11.5334 21.7208C11.6796 21.5738 11.7617 21.3748 11.7617 21.1674V16.4741C11.7617 16.266 11.8443 16.0664 11.9914 15.9193C12.1384 15.7721 12.3379 15.6895 12.5458 15.6895H15.6824C15.8903 15.6895 16.0898 15.7721 16.2368 15.9193C16.3839 16.0664 16.4665 16.266 16.4665 16.4741V21.164C16.4662 21.2672 16.4862 21.3695 16.5255 21.465C16.5647 21.5605 16.6224 21.6473 16.6953 21.7204C16.7681 21.7935 16.8547 21.8515 16.95 21.8911C17.0453 21.9307 17.1474 21.951 17.2506 21.951L22.7405 21.9662C22.9485 21.9662 23.1479 21.8836 23.295 21.7364C23.442 21.5893 23.5247 21.3897 23.5247 21.1817V13.1395L14.491 5.69862C14.3848 5.61296 14.2525 5.56626 14.1161 5.56626C13.9797 5.56626 13.8474 5.61296 13.7412 5.69862ZM28.0138 10.7598L23.9167 7.3806V0.588447C23.9167 0.432381 23.8548 0.282708 23.7445 0.172352C23.6342 0.0619971 23.4846 0 23.3286 0H20.5842C20.4282 0 20.2786 0.0619971 20.1683 0.172352C20.058 0.282708 19.9961 0.432381 19.9961 0.588447V4.14904L15.6084 0.536958C15.1873 0.190254 14.6589 0.000693066 14.1136 0.000693066C13.5683 0.000693066 13.0399 0.190254 12.6189 0.536958L0.21343 10.7598C0.153879 10.809 0.10461 10.8695 0.0684379 10.9378C0.0322659 11.0061 0.00990002 11.0809 0.00261809 11.1579C-0.00466384 11.2348 0.00328093 11.3125 0.0259984 11.3864C0.048716 11.4602 0.085761 11.5289 0.135017 11.5885L1.38472 13.1086C1.43385 13.1684 1.49427 13.2179 1.56253 13.2543C1.63078 13.2906 1.70554 13.3132 1.78252 13.3206C1.8595 13.328 1.93718 13.3202 2.01113 13.2975C2.08507 13.2749 2.15383 13.2379 2.21345 13.1886L13.7412 3.68809C13.8474 3.60244 13.9797 3.55573 14.1161 3.55573C14.2525 3.55573 14.3848 3.60244 14.491 3.68809L26.0192 13.1886C26.0787 13.2379 26.1473 13.2749 26.2212 13.2977C26.295 13.3204 26.3726 13.3283 26.4495 13.3211C26.5264 13.3138 26.6012 13.2914 26.6694 13.2552C26.7377 13.219 26.7982 13.1697 26.8474 13.1101L28.0971 11.59C28.1463 11.5301 28.1832 11.461 28.2057 11.3868C28.2281 11.3126 28.2357 11.2347 28.2279 11.1575C28.2202 11.0804 28.1973 11.0055 28.1605 10.9373C28.1238 10.869 28.0739 10.8087 28.0138 10.7598Z" fill="black"/>
</svg>
