<svg width="25" height="25" viewBox="0 0 25 25" fill="none" xmlns="http://www.w3.org/2000/svg">
<path fill-rule="evenodd" clip-rule="evenodd" d="M7.31213 0.0746488C8.63923 0.0138213 9.06224 0 12.4415 0C15.8214 0 16.2437 0.0145113 17.5701 0.0746488C18.8951 0.134786 19.7999 0.345602 20.5913 0.653178C21.4214 0.965696 22.1733 1.45536 22.7948 2.0881C23.4276 2.70953 23.9174 3.46151 24.2298 4.29162C24.5373 5.08303 24.7475 5.98781 24.8083 7.31213C24.8692 8.63923 24.883 9.06224 24.883 12.4415C24.883 15.8207 24.8685 16.2437 24.8083 17.5709C24.7481 18.8951 24.5373 19.7999 24.2298 20.5913C23.9118 21.4091 23.486 22.1036 22.7948 22.7948C22.1734 23.4276 21.4214 23.9174 20.5913 24.2298C19.7999 24.5373 18.8951 24.7475 17.5709 24.8083C16.2437 24.8692 15.8207 24.883 12.4415 24.883C9.06224 24.883 8.63923 24.8685 7.31213 24.8083C5.98781 24.7481 5.08303 24.5373 4.29162 24.2298C3.47393 23.9118 2.77929 23.486 2.0881 22.7948C1.45525 22.1734 0.965549 21.4214 0.653178 20.5913C0.345602 19.7999 0.135476 18.8951 0.0746488 17.5709C0.0138213 16.2437 0 15.8214 0 12.4415C0 9.06155 0.0145113 8.63923 0.0746488 7.31283C0.134786 5.98781 0.345602 5.08303 0.653178 4.29162C0.965696 3.46157 1.45536 2.70962 2.0881 2.0881C2.70952 1.45525 3.4615 0.965549 4.29162 0.653178C5.08303 0.345602 5.98781 0.135476 7.31213 0.0746488ZM17.4692 2.31411C16.1573 2.25467 15.7634 2.24154 12.4415 2.24154C9.1196 2.24154 8.72563 2.25467 7.41374 2.31411C6.2007 2.36941 5.54199 2.57192 5.10377 2.74266C4.52317 2.96798 4.10845 3.23754 3.673 3.673C3.23825 4.10845 2.96798 4.52317 2.74266 5.10377C2.57192 5.54199 2.36941 6.2007 2.31411 7.41374C2.25467 8.72563 2.24154 9.1196 2.24154 12.4415C2.24154 15.7634 2.25467 16.1573 2.31411 17.4692C2.36941 18.6822 2.57192 19.341 2.74266 19.7792C2.94197 20.3196 3.25988 20.8085 3.673 21.21C4.0744 21.6231 4.56332 21.941 5.10377 22.1403C5.54199 22.3111 6.2007 22.5135 7.41374 22.5688C8.72563 22.6283 9.11891 22.6415 12.4415 22.6415C15.764 22.6415 16.1573 22.6283 17.4692 22.5688C18.6822 22.5135 19.341 22.3111 19.7792 22.1403C20.3598 21.915 20.7746 21.6455 21.21 21.21C21.6231 20.8086 21.941 20.3196 22.1403 19.7792C22.3111 19.341 22.5135 18.6822 22.5688 17.4692C22.6283 16.1573 22.6415 15.7634 22.6415 12.4415C22.6415 9.1196 22.6283 8.72563 22.5688 7.41374C22.5135 6.2007 22.3111 5.54199 22.1403 5.10377C21.915 4.52317 21.6455 4.10845 21.21 3.673C20.7746 3.23825 20.3598 2.96798 19.7792 2.74266C19.341 2.57192 18.6822 2.36941 17.4692 2.31411ZM10.8529 16.2767C11.3566 16.4854 11.8963 16.5927 12.4415 16.5927C13.5425 16.5927 14.5984 16.1554 15.3769 15.3769C16.1555 14.5984 16.5929 13.5424 16.5929 12.4415C16.5929 11.3405 16.1555 10.2846 15.3769 9.50606C14.5984 8.72754 13.5425 8.29016 12.4415 8.29016C11.8963 8.29016 11.3566 8.39754 10.8529 8.60617C10.3492 8.81479 9.89157 9.12056 9.50609 9.50606C9.12061 9.89154 8.81482 10.3492 8.6062 10.8528C8.39758 11.3565 8.29021 11.8963 8.29021 12.4415C8.29021 12.9866 8.39758 13.5265 8.6062 14.0301C8.81482 14.5338 9.12061 14.9914 9.50609 15.3769C9.89157 15.7623 10.3492 16.0682 10.8529 16.2767ZM7.91962 7.91958C9.1189 6.7203 10.7455 6.04655 12.4415 6.04655C14.1376 6.04655 15.7641 6.7203 16.9634 7.91958C18.1626 9.11886 18.8364 10.7455 18.8364 12.4415C18.8364 14.1375 18.1626 15.764 16.9634 16.9634C15.7641 18.1626 14.1376 18.8364 12.4415 18.8364C10.7455 18.8364 9.1189 18.1626 7.91962 16.9634C6.72034 15.764 6.04659 14.1375 6.04659 12.4415C6.04659 10.7455 6.72034 9.11886 7.91962 7.91958ZM20.2544 6.99933C20.5378 6.71583 20.6971 6.33134 20.6971 5.93043C20.6971 5.52951 20.5378 5.14503 20.2544 4.86154C19.9708 4.57806 19.5864 4.41879 19.1854 4.41879C18.7846 4.41879 18.4 4.57806 18.1166 4.86154C17.833 5.14503 17.6738 5.52951 17.6738 5.93043C17.6738 6.33134 17.833 6.71583 18.1166 6.99933C18.4 7.28281 18.7846 7.44207 19.1854 7.44207C19.5864 7.44207 19.9708 7.28281 20.2544 6.99933Z" fill="black"/>
</svg>
