<svg width="127" height="127" viewBox="0 0 127 127" fill="none" xmlns="http://www.w3.org/2000/svg">
<path d="M114.975 123.724H52.0257C46.9071 123.724 42.7406 119.557 42.7406 114.439V84.3803H12.6822C7.56358 84.3803 3.39709 80.2138 3.39709 75.0952V12.1456C3.39709 7.02696 7.56358 2.86047 12.6822 2.86047H75.6319C80.7544 2.86047 84.9169 7.02696 84.9169 12.1456V42.204H114.975C120.098 42.204 124.26 46.3705 124.26 51.4891V114.439C124.26 119.561 120.098 123.724 114.975 123.724ZM45.5734 84.3803V114.439C45.5734 117.995 48.4691 120.891 52.0257 120.891H114.975C118.532 120.891 121.428 117.999 121.428 114.439V51.4891C121.428 47.9324 118.536 45.0368 114.975 45.0368H84.9169V75.0952C84.9169 80.2178 80.7505 84.3803 75.6319 84.3803H45.5734ZM75.6319 72.5772C74.243 72.5772 73.1139 73.7064 73.1139 75.0952V79.0296C73.1139 80.4184 74.243 81.5476 75.6319 81.5476C79.1885 81.5476 82.0842 78.6558 82.0842 75.0952C82.0842 73.7064 80.955 72.5772 79.5662 72.5772H75.6319ZM44.157 81.5476H70.9106C70.5093 80.8 70.2811 79.9424 70.2811 79.0296V75.0952C70.2811 72.1445 72.6811 69.7445 75.6319 69.7445H79.5662C80.475 69.7445 81.3327 69.9766 82.0842 70.374V40.4729C81.3367 40.8781 80.479 41.1024 79.5662 41.1024H75.6319C72.6811 41.1024 70.2811 38.7024 70.2811 35.7517V31.8173C70.2811 28.8666 72.6811 26.4666 75.6319 26.4666H79.5662C80.475 26.4666 81.3327 26.6948 82.0842 27.0961V12.1456C82.0842 8.5889 79.1924 5.69321 75.6319 5.69321H60.6813C61.0865 6.44467 61.3108 7.30236 61.3108 8.2112V12.1456C61.3108 15.0963 58.9108 17.4963 55.9601 17.4963H52.0257C49.075 17.4963 46.675 15.0963 46.675 12.1456V8.2112C46.675 7.30236 46.9032 6.44467 47.3045 5.69321H17.4034C17.8047 6.44467 18.0329 7.30236 18.0329 8.2112V12.1456C18.0329 15.0963 15.6329 17.4963 12.6822 17.4963H8.74782C7.83898 17.4963 6.98129 17.2681 6.22983 16.8668V46.7679C6.98129 46.3626 7.83898 46.1384 8.74782 46.1384H12.6822C15.6329 46.1384 18.0329 48.5383 18.0329 51.4891V55.4235C18.0329 58.3742 15.6329 60.7742 12.6822 60.7742H8.74782C7.83898 60.7742 6.98129 60.546 6.22983 60.1447V75.0952C6.22983 78.6519 9.12552 81.5476 12.6822 81.5476H27.6327C27.2275 80.8 27.0032 79.9424 27.0032 79.0296V75.0952C27.0032 72.1445 29.4032 69.7445 32.3539 69.7445H36.2883C39.2391 69.7445 41.639 72.1445 41.639 75.0952V79.0296C41.639 79.9384 41.4108 80.7961 41.0095 81.5476H44.157ZM32.3539 72.5772C30.9651 72.5772 29.836 73.7064 29.836 75.0952V79.0296C29.836 80.4184 30.9651 81.5476 32.3539 81.5476H36.2883C37.6771 81.5476 38.8063 80.4184 38.8063 79.0296V75.0952C38.8063 73.7064 37.6771 72.5772 36.2883 72.5772H32.3539ZM6.22983 55.4235C6.22983 56.8123 7.35899 57.9414 8.74782 57.9414H12.6822C14.071 57.9414 15.2002 56.8123 15.2002 55.4235V51.4891C15.2002 50.1003 14.071 48.9711 12.6822 48.9711H8.74782C7.35899 48.9711 6.22983 50.1003 6.22983 51.4891V55.4235ZM75.6319 29.2993C74.243 29.2993 73.1139 30.4285 73.1139 31.8173V35.7517C73.1139 37.1405 74.243 38.2697 75.6319 38.2697H79.5662C80.955 38.2697 82.0842 37.1405 82.0842 35.7517V31.8173C82.0842 30.4285 80.955 29.2993 79.5662 29.2993H75.6319ZM52.0257 5.69321C50.6369 5.69321 49.5077 6.82237 49.5077 8.2112V12.1456C49.5077 13.5344 50.6369 14.6635 52.0257 14.6635H55.9601C57.3489 14.6635 58.4781 13.5344 58.4781 12.1456V8.2112C58.4781 6.82237 57.3489 5.69321 55.9601 5.69321H52.0257ZM6.22983 12.1456C6.22983 13.5344 7.35899 14.6635 8.74782 14.6635H12.6822C14.071 14.6635 15.2002 13.5344 15.2002 12.1456V8.2112C15.2002 6.82237 14.071 5.69321 12.6822 5.69321C9.12552 5.69321 6.22983 8.5889 6.22983 12.1456ZM55.9601 60.7742H52.0257C49.075 60.7742 46.675 58.3742 46.675 55.4235V51.4891C46.675 48.5383 49.075 46.1384 52.0257 46.1384H55.9601C58.9108 46.1384 61.3108 48.5383 61.3108 51.4891V55.4235C61.3108 58.3742 58.9108 60.7742 55.9601 60.7742ZM52.0257 48.9711C50.6369 48.9711 49.5077 50.1003 49.5077 51.4891V55.4235C49.5077 56.8123 50.6369 57.9414 52.0257 57.9414H55.9601C57.3489 57.9414 58.4781 56.8123 58.4781 55.4235V51.4891C58.4781 50.1003 57.3489 48.9711 55.9601 48.9711H52.0257ZM36.2883 41.1024H32.3539C29.4032 41.1024 27.0032 38.7024 27.0032 35.7517V31.8173C27.0032 28.8666 29.4032 26.4666 32.3539 26.4666H36.2883C39.2391 26.4666 41.639 28.8666 41.639 31.8173V35.7517C41.639 38.7024 39.2391 41.1024 36.2883 41.1024ZM32.3539 29.2993C30.9651 29.2993 29.836 30.4285 29.836 31.8173V35.7517C29.836 37.1405 30.9651 38.2697 32.3539 38.2697H36.2883C37.6771 38.2697 38.8063 37.1405 38.8063 35.7517V31.8173C38.8063 30.4285 37.6771 29.2993 36.2883 29.2993H32.3539Z" fill="#1A1627"/>
</svg>
