<svg width="37" height="37" viewBox="0 0 37 37" fill="none" xmlns="http://www.w3.org/2000/svg">
<path d="M36.3479 18.9156C36.3479 8.87567 28.2071 0.741699 18.1739 0.741699C8.13397 0.741699 0 8.87567 0 18.9156C0 27.9844 6.64371 35.5039 15.3343 36.8658V24.1702H10.7192V18.9168H15.3343V14.9105C15.3343 10.3568 18.0433 7.84203 22.196 7.84203C24.185 7.84203 26.267 8.19642 26.267 8.19642V12.6683H23.9714C21.7178 12.6683 21.0136 14.0711 21.0136 15.508V18.9156H26.0535L25.2436 24.169H21.0136V36.8647C29.6973 35.5027 36.3479 27.9833 36.3479 18.9145V18.9156Z" fill="black"/>
</svg>
