<svg width="29" height="29" viewBox="0 0 29 29" fill="none" xmlns="http://www.w3.org/2000/svg">
<path d="M15.2918 9.62985C16.2277 9.62985 17.1253 10.0019 17.787 10.664C18.4488 11.3262 18.8206 12.2243 18.8206 13.1608C18.8206 13.473 18.9446 13.7723 19.1651 13.9931C19.3857 14.2138 19.6849 14.3378 19.9969 14.3378C20.3089 14.3378 20.6081 14.2138 20.8287 13.9931C21.0493 13.7723 21.1732 13.473 21.1732 13.1608C21.1732 11.6 20.5535 10.1032 19.4506 8.99953C18.3476 7.8959 16.8516 7.27588 15.2918 7.27588C14.9798 7.27588 14.6806 7.39988 14.46 7.62061C14.2394 7.84134 14.1155 8.14071 14.1155 8.45286C14.1155 8.76502 14.2394 9.06439 14.46 9.28512C14.6806 9.50585 14.9798 9.62985 15.2918 9.62985Z" fill="#231F20"/>
<path d="M15.2918 4.92209C17.4756 4.92209 19.5699 5.79011 21.1141 7.3352C22.6583 8.88029 23.5258 10.9759 23.5258 13.161C23.5258 13.4731 23.6497 13.7725 23.8703 13.9932C24.0909 14.214 24.3901 14.338 24.7021 14.338C25.014 14.338 25.3132 14.214 25.5338 13.9932C25.7544 13.7725 25.8783 13.4731 25.8783 13.161C25.8783 10.3516 24.763 7.65724 22.7776 5.67069C20.7922 3.68415 18.0995 2.56812 15.2918 2.56812C14.9798 2.56812 14.6806 2.69212 14.46 2.91285C14.2394 3.13357 14.1155 3.43294 14.1155 3.7451C14.1155 4.05726 14.2394 4.35663 14.46 4.57735C14.6806 4.79808 14.9798 4.92209 15.2918 4.92209Z" fill="#231F20"/>
<path d="M25.5843 18.94C25.5196 18.751 25.4079 18.5817 25.2598 18.4478C25.1116 18.314 24.9318 18.2201 24.7374 18.1749L17.6797 16.5625C17.4881 16.519 17.2887 16.5242 17.0997 16.5777C16.9106 16.6311 16.738 16.7311 16.5975 16.8685C16.4328 17.0215 16.421 17.0333 15.6565 18.4927C13.1194 17.323 11.0866 15.2806 9.92794 12.7373C11.4218 11.984 11.4336 11.984 11.5865 11.8074C11.7238 11.6669 11.8237 11.4941 11.8771 11.305C11.9305 11.1158 11.9358 10.9163 11.8923 10.7246L10.2808 3.7451C10.2357 3.55054 10.1419 3.37067 10.0081 3.22241C9.87434 3.07416 9.70508 2.96241 9.51624 2.89767C9.24154 2.7995 8.95787 2.72854 8.66932 2.68581C8.37201 2.61684 8.06863 2.57741 7.76358 2.56812C6.32851 2.56812 4.95223 3.13853 3.93748 4.15388C2.92274 5.16922 2.35266 6.54633 2.35266 7.98225C2.35889 12.7875 4.2694 17.3942 7.66524 20.7921C11.0611 24.1899 15.665 26.1016 20.4675 26.1078C21.178 26.1078 21.8817 25.9678 22.5381 25.6957C23.1946 25.4236 23.7911 25.0248 24.2936 24.5221C24.796 24.0193 25.1946 23.4225 25.4665 22.7656C25.7384 22.1087 25.8784 21.4047 25.8784 20.6937C25.8788 20.3941 25.8552 20.095 25.8078 19.7992C25.7584 19.5068 25.6836 19.2193 25.5843 18.94ZM20.4675 23.7538C16.288 23.7507 12.2806 22.0881 9.32533 19.131C6.37001 16.1739 4.70835 12.1642 4.70523 7.98225C4.70833 7.1716 5.03154 6.39503 5.60443 5.82181C6.17731 5.24859 6.95341 4.92518 7.76358 4.92209H8.15175L9.41038 10.3833L8.77518 10.7129C7.76358 11.2425 6.9637 11.6662 7.38717 12.5843C8.07673 14.5376 9.1925 16.3126 10.6534 17.7805C12.1143 19.2484 13.8837 20.3722 15.8329 21.0703C16.821 21.4705 17.2092 20.729 17.7385 19.705L18.0796 19.0577L23.5258 20.3053V20.6937C23.5227 21.5043 23.1995 22.2809 22.6266 22.8541C22.0537 23.4273 21.2776 23.7507 20.4675 23.7538Z" fill="#231F20"/>
</svg>
