<svg width="38" height="38" viewBox="0 0 38 38" fill="none" xmlns="http://www.w3.org/2000/svg">
<path d="M29.7445 6.84814H8.13138C6.90306 6.84814 5.72505 7.33808 4.8565 8.21016C3.98795 9.08225 3.5 10.2651 3.5 11.4984V26.9991C3.5 28.2325 3.98795 29.4153 4.8565 30.2873C5.72505 31.1594 6.90306 31.6494 8.13138 31.6494H29.7445C30.9728 31.6494 32.1508 31.1594 33.0194 30.2873C33.8879 29.4153 34.3759 28.2325 34.3759 26.9991V11.4984C34.3759 10.2651 33.8879 9.08225 33.0194 8.21016C32.1508 7.33808 30.9728 6.84814 29.7445 6.84814ZM28.7102 9.9483L18.9379 17.3112L9.16573 9.9483H28.7102ZM29.7445 28.5492H8.13138C7.72194 28.5492 7.32927 28.3859 7.03976 28.0952C6.75024 27.8045 6.58759 27.4102 6.58759 26.9991V11.8859L18.0117 20.4888C18.2789 20.69 18.6039 20.7988 18.9379 20.7988C19.272 20.7988 19.597 20.69 19.8642 20.4888L31.2883 11.8859V26.9991C31.2883 27.4102 31.1257 27.8045 30.8361 28.0952C30.5466 28.3859 30.1539 28.5492 29.7445 28.5492Z" fill="#231F20"/>
</svg>
