<svg width="15" height="18" viewBox="0 0 15 18" fill="none" xmlns="http://www.w3.org/2000/svg">
<path d="M13.3433 10.7834L13.3435 10.7833C13.3999 10.7339 13.4638 10.6978 13.5308 10.6759L13.3757 10.2006L13.5308 10.6759C13.5978 10.6541 13.6677 10.6464 13.7367 10.6531C13.8058 10.6598 13.8738 10.6808 13.9371 10.7158L14.1793 10.2784L13.9371 10.7158C14.0005 10.7509 14.0583 10.7997 14.1063 10.8605L14.1071 10.8615C14.1553 10.9223 14.1926 10.9937 14.2158 11.0721C14.2391 11.1506 14.2474 11.2336 14.2402 11.3161C14.233 11.3986 14.2103 11.4779 14.1744 11.5495C14.1384 11.6211 14.0902 11.6829 14.0336 11.7322L14.0326 11.733L7.7452 17.2342L7.63055 17.3064L7.53702 17.3593C7.42899 17.3966 7.3132 17.3966 7.20518 17.3593L7.11164 17.3064L6.997 17.2342L0.709575 11.733L0.70909 11.7326C0.65247 11.6832 0.604264 11.6213 0.568341 11.5496C0.532398 11.478 0.509784 11.3986 0.502535 11.316C0.495286 11.2335 0.503641 11.1504 0.526833 11.0719C0.550018 10.9934 0.587306 10.9219 0.635494 10.861L0.244249 10.5513L0.635495 10.861C0.683645 10.8002 0.741514 10.7515 0.804932 10.7164C0.868286 10.6814 0.936433 10.6604 1.00554 10.6537L0.957777 10.1603L1.00554 10.6537C1.07462 10.647 1.14452 10.6546 1.2116 10.6765C1.27866 10.6983 1.34249 10.7343 1.399 10.7835C1.39906 10.7836 1.39913 10.7836 1.39919 10.7837L5.9892 14.796L6.81827 15.5208V14.4196V1.3095C6.81827 1.14129 6.88214 0.984579 6.9887 0.872705C7.09446 0.761658 7.23256 0.704102 7.3711 0.704102C7.50963 0.704102 7.64773 0.761659 7.7535 0.872705C7.86005 0.984579 7.92392 1.14129 7.92392 1.3095V14.4196V15.5208L8.75299 14.796L13.3433 10.7834Z" fill="#776AD9" stroke="#776AD9"/>
</svg>
