<svg width="22" height="18" viewBox="0 0 22 18" fill="none" xmlns="http://www.w3.org/2000/svg">
<path d="M2.93929 9.98739V12.8222C2.93929 13.5586 3.34366 14.2446 3.99066 14.5977L9.04532 17.3518C9.65189 17.6847 10.3798 17.6847 10.9863 17.3518L16.041 14.5977C16.688 14.2446 17.0924 13.5586 17.0924 12.8222V9.98739L10.9863 13.3165C10.3798 13.6494 9.65189 13.6494 9.04532 13.3165L2.93929 9.98739ZM9.04532 0.242118L0.523158 4.88272C-0.174386 5.26608 -0.174386 6.2749 0.523158 6.65826L9.04532 11.2989C9.65189 11.6318 10.3798 11.6318 10.9863 11.2989L19.1142 6.87011V12.8323C19.1142 13.3871 19.5691 13.8411 20.1252 13.8411C20.6812 13.8411 21.1361 13.3871 21.1361 12.8323V6.3657C21.1361 5.99243 20.9339 5.65952 20.6104 5.47793L10.9863 0.242118C10.3798 -0.0807062 9.65189 -0.0807062 9.04532 0.242118Z" fill="#4DA9E2"/>
</svg>
