<svg width="184" height="184" viewBox="0 0 184 184" fill="none" xmlns="http://www.w3.org/2000/svg">
<path d="M166.629 180.178H75.152C67.7138 180.178 61.6591 174.123 61.6591 166.685V123.004H17.9786C10.5404 123.004 4.48573 116.95 4.48573 109.511V18.0338C4.48573 10.5956 10.5404 4.54089 17.9786 4.54089H109.456C116.9 4.54089 122.949 10.5956 122.949 18.0338V61.7143H166.629C174.073 61.7143 180.122 67.769 180.122 75.2072V166.685C180.122 174.129 174.073 180.178 166.629 180.178ZM65.7756 123.004V166.685C65.7756 171.853 69.9836 176.061 75.152 176.061H166.629C171.798 176.061 176.006 171.859 176.006 166.685V75.2072C176.006 70.0387 171.804 65.8308 166.629 65.8308H122.949V109.511C122.949 116.955 116.894 123.004 109.456 123.004H65.7756ZM109.456 105.852C107.438 105.852 105.797 107.493 105.797 109.511V115.229C105.797 117.247 107.438 118.888 109.456 118.888C114.625 118.888 118.833 114.685 118.833 109.511C118.833 107.493 117.192 105.852 115.173 105.852H109.456ZM63.7174 118.888H102.595C102.012 117.801 101.681 116.555 101.681 115.229V109.511C101.681 105.223 105.168 101.736 109.456 101.736H115.173C116.494 101.736 117.741 102.073 118.833 102.65V59.1987C117.746 59.7875 116.5 60.1134 115.173 60.1134H109.456C105.168 60.1134 101.681 56.6259 101.681 52.3379V46.6205C101.681 42.3325 105.168 38.8449 109.456 38.8449H115.173C116.494 38.8449 117.741 39.1765 118.833 39.7597V18.0338C118.833 12.8653 114.63 8.65738 109.456 8.65738H87.7302C88.3191 9.74939 88.645 10.9958 88.645 12.3165V18.0338C88.645 22.3218 85.1574 25.8094 80.8694 25.8094H75.152C70.864 25.8094 67.3765 22.3218 67.3765 18.0338V12.3165C67.3765 10.9958 67.7081 9.74939 68.2912 8.65738H24.8395C25.4226 9.74939 25.7542 10.9958 25.7542 12.3165V18.0338C25.7542 22.3218 22.2667 25.8094 17.9786 25.8094H12.2613C10.9406 25.8094 9.69422 25.4778 8.60221 24.8946V68.3464C9.69422 67.7575 10.9406 67.4316 12.2613 67.4316H17.9786C22.2667 67.4316 25.7542 70.9192 25.7542 75.2072V80.9246C25.7542 85.2126 22.2667 88.7001 17.9786 88.7001H12.2613C10.9406 88.7001 9.69422 88.3685 8.60221 87.7854V109.511C8.60221 114.68 12.8102 118.888 17.9786 118.888H39.7045C39.1157 117.801 38.7898 116.555 38.7898 115.229V109.511C38.7898 105.223 42.2773 101.736 46.5653 101.736H52.2827C56.5707 101.736 60.0583 105.223 60.0583 109.511V115.229C60.0583 116.549 59.7267 117.796 59.1435 118.888H63.7174ZM46.5653 105.852C44.5471 105.852 42.9062 107.493 42.9062 109.511V115.229C42.9062 117.247 44.5471 118.888 46.5653 118.888H52.2827C54.3009 118.888 55.9418 117.247 55.9418 115.229V109.511C55.9418 107.493 54.3009 105.852 52.2827 105.852H46.5653ZM8.60221 80.9246C8.60221 82.9428 10.2431 84.5837 12.2613 84.5837H17.9786C19.9969 84.5837 21.6377 82.9428 21.6377 80.9246V75.2072C21.6377 73.189 19.9969 71.5481 17.9786 71.5481H12.2613C10.2431 71.5481 8.60221 73.189 8.60221 75.2072V80.9246ZM109.456 42.9614C107.438 42.9614 105.797 44.6023 105.797 46.6205V52.3379C105.797 54.3561 107.438 55.997 109.456 55.997H115.173C117.192 55.997 118.833 54.3561 118.833 52.3379V46.6205C118.833 44.6023 117.192 42.9614 115.173 42.9614H109.456ZM75.152 8.65738C73.1338 8.65738 71.4929 10.2983 71.4929 12.3165V18.0338C71.4929 20.052 73.1338 21.6929 75.152 21.6929H80.8694C82.8876 21.6929 84.5285 20.052 84.5285 18.0338V12.3165C84.5285 10.2983 82.8876 8.65738 80.8694 8.65738H75.152ZM8.60221 18.0338C8.60221 20.052 10.2431 21.6929 12.2613 21.6929H17.9786C19.9969 21.6929 21.6377 20.052 21.6377 18.0338V12.3165C21.6377 10.2983 19.9969 8.65738 17.9786 8.65738C12.8102 8.65738 8.60221 12.8653 8.60221 18.0338ZM80.8694 88.7001H75.152C70.864 88.7001 67.3765 85.2126 67.3765 80.9246V75.2072C67.3765 70.9192 70.864 67.4316 75.152 67.4316H80.8694C85.1574 67.4316 88.645 70.9192 88.645 75.2072V80.9246C88.645 85.2126 85.1574 88.7001 80.8694 88.7001ZM75.152 71.5481C73.1338 71.5481 71.4929 73.189 71.4929 75.2072V80.9246C71.4929 82.9428 73.1338 84.5837 75.152 84.5837H80.8694C82.8876 84.5837 84.5285 82.9428 84.5285 80.9246V75.2072C84.5285 73.189 82.8876 71.5481 80.8694 71.5481H75.152ZM52.2827 60.1134H46.5653C42.2773 60.1134 38.7898 56.6259 38.7898 52.3379V46.6205C38.7898 42.3325 42.2773 38.8449 46.5653 38.8449H52.2827C56.5707 38.8449 60.0583 42.3325 60.0583 46.6205V52.3379C60.0583 56.6259 56.5707 60.1134 52.2827 60.1134ZM46.5653 42.9614C44.5471 42.9614 42.9062 44.6023 42.9062 46.6205V52.3379C42.9062 54.3561 44.5471 55.997 46.5653 55.997H52.2827C54.3009 55.997 55.9418 54.3561 55.9418 52.3379V46.6205C55.9418 44.6023 54.3009 42.9614 52.2827 42.9614H46.5653Z" fill="#1A1627"/>
</svg>
