<svg width="25" height="23" viewBox="0 0 25 23" fill="none" xmlns="http://www.w3.org/2000/svg">
<path d="M7.01288 22.7119C9.05566 22.7803 11.0914 22.4384 12.9998 21.7066C14.9082 20.9748 16.6506 19.8679 18.1239 18.4512C19.5973 17.0345 20.7717 15.3369 21.5777 13.4587C22.3838 11.5804 22.8052 9.5596 22.8169 7.51571C23.7531 6.35723 24.4482 5.0233 24.8615 3.59233C24.8924 3.47927 24.8899 3.35971 24.8543 3.24803C24.8188 3.13635 24.7518 3.03733 24.6613 2.96288C24.5708 2.88843 24.4607 2.84174 24.3442 2.82841C24.2278 2.81509 24.11 2.8357 24.005 2.88778C23.5152 3.12353 22.9639 3.19968 22.4285 3.10551C21.8932 3.01133 21.4009 2.75157 21.021 2.36282C20.5361 1.83175 19.9494 1.40343 19.2959 1.10323C18.6424 0.80303 17.9352 0.637064 17.2164 0.615163C16.4975 0.593263 15.7816 0.715874 15.111 0.975732C14.4404 1.23559 13.8288 1.62741 13.3124 2.12797C12.6054 2.81271 12.0875 3.66871 11.8091 4.61279C11.5307 5.55687 11.5013 6.55691 11.7237 7.51571C7.09577 7.79201 3.91838 5.59547 1.37647 2.58385C1.30011 2.49738 1.20021 2.435 1.08899 2.40436C0.977767 2.37371 0.860026 2.37612 0.750146 2.41128C0.640266 2.44644 0.543002 2.51284 0.470233 2.60236C0.397464 2.69189 0.352338 2.80066 0.340366 2.91541C-0.143882 5.60158 0.205437 8.3716 1.34141 10.8534C2.47738 13.3353 4.34559 15.4101 6.69514 16.7992C5.11976 18.6059 2.90743 19.7344 0.519958 19.949C0.39205 19.9702 0.273975 20.0309 0.182259 20.1225C0.0905421 20.2141 0.029774 20.3322 0.00845897 20.4601C-0.0128561 20.5879 0.00634881 20.7193 0.0633858 20.8357C0.120423 20.9522 0.212437 21.0479 0.326552 21.1094C2.40362 22.1474 4.69094 22.6956 7.01288 22.7119Z" fill="#231F20"/>
</svg>
