<svg width="29" height="30" viewBox="0 0 29 30" fill="none" xmlns="http://www.w3.org/2000/svg">
<rect x="0.1875" y="12.3857" width="4.57325" height="12.1436" fill="black"/>
<rect x="10.375" y="14.9688" width="4.38359" height="14.6439" fill="black"/>
<path d="M10.375 14.9788C10.375 13.3482 10.8986 11.7542 11.8796 10.3984C12.8606 9.04265 14.255 7.98594 15.8863 7.36194C17.5177 6.73794 19.3128 6.57468 21.0447 6.89279C22.7765 7.2109 24.3673 7.9961 25.6159 9.1491C26.8645 10.3021 27.7148 11.7711 28.0593 13.3704C28.4038 14.9696 28.227 16.6273 27.5512 18.1338C26.8755 19.6402 25.7312 20.9278 24.263 21.8337C22.7948 22.7396 21.0687 23.2232 19.3029 23.2232L19.3029 19.1974C20.2065 19.1974 21.0897 18.95 21.841 18.4865C22.5923 18.0229 23.1778 17.364 23.5236 16.5932C23.8693 15.8223 23.9598 14.9741 23.7835 14.1558C23.6073 13.3374 23.1722 12.5857 22.5333 11.9957C21.8944 11.4057 21.0804 11.004 20.1942 10.8412C19.308 10.6784 18.3894 10.7619 17.5547 11.0812C16.7199 11.4005 16.0064 11.9413 15.5044 12.635C15.0024 13.3288 14.7345 14.1444 14.7345 14.9788L10.375 14.9788Z" fill="black"/>
<path d="M13.0959 0.5896C11.4007 0.5896 9.72216 0.895395 8.15605 1.48953C6.58993 2.08366 5.16692 2.95449 3.96827 4.0523C2.76962 5.15012 1.8188 6.45341 1.17009 7.88777C0.521384 9.32213 0.1875 10.8595 0.1875 12.412L4.76202 12.412C4.76202 11.4097 4.97758 10.4171 5.3964 9.49109C5.81521 8.56504 6.42908 7.72362 7.20295 7.01485C7.97682 6.30609 8.89553 5.74386 9.90664 5.36028C10.9177 4.9767 12.0014 4.77928 13.0959 4.77928V0.5896Z" fill="black"/>
</svg>
