<svg width="28" height="27" viewBox="0 0 28 27" fill="none" xmlns="http://www.w3.org/2000/svg">
<path d="M2.88098 9.99336C2.88098 8.76679 3.87739 7.77246 5.10652 7.77246H22.9108C24.14 7.77246 25.1363 8.76679 25.1363 9.99336V22.2083C25.1363 23.4349 24.14 24.4292 22.9108 24.4292H5.10652C3.87739 24.4292 2.88098 23.4349 2.88098 22.2083V9.99336Z" stroke="#1A1627" stroke-width="4" stroke-linecap="round" stroke-linejoin="round"/>
<path d="M18.4597 7.77246V4.44111C18.4597 3.21454 17.4634 2.22021 16.2342 2.22021H11.7831C10.554 2.22021 9.5576 3.21454 9.5576 4.44111V7.77246" stroke="#1A1627" stroke-width="4" stroke-linecap="round" stroke-linejoin="round"/>
<path d="M25.1363 13.3247L14.4451 15.4585C14.157 15.516 13.8603 15.516 13.5722 15.4585L2.88098 13.3247" stroke="#1A1627" stroke-width="4" stroke-linecap="round" stroke-linejoin="round"/>
</svg>
