<svg width="20" height="21" viewBox="0 0 20 21" fill="none" xmlns="http://www.w3.org/2000/svg">
<rect y="8.37817" width="3.25959" height="8.6254" fill="black"/>
<rect x="7.25659" y="10.2134" width="3.12441" height="10.4014" fill="black"/>
<path d="M7.27319 10.2199C7.27319 9.0617 7.6464 7.92953 8.34562 6.96653C9.04483 6.00354 10.0387 5.25298 11.2014 4.80976C12.3642 4.36655 13.6436 4.25058 14.878 4.47653C16.1124 4.70248 17.2462 5.2602 18.1362 6.07916C19.0261 6.89812 19.6321 7.94153 19.8777 9.07746C20.1232 10.2134 19.9972 11.3908 19.5156 12.4608C19.0339 13.5308 18.2183 14.4454 17.1719 15.0889C16.1254 15.7323 14.8951 16.0757 13.6366 16.0757L13.6366 13.2163C14.2806 13.2163 14.9101 13.0406 15.4456 12.7113C15.9811 12.3821 16.3984 11.9141 16.6448 11.3666C16.8913 10.819 16.9558 10.2166 16.8301 9.6353C16.7045 9.05405 16.3944 8.52013 15.939 8.10107C15.4836 7.68201 14.9034 7.39663 14.2718 7.28101C13.6402 7.16539 12.9855 7.22473 12.3905 7.45152C11.7955 7.67832 11.287 8.06238 10.9292 8.55514C10.5714 9.04791 10.3804 9.62724 10.3804 10.2199H7.27319Z" fill="black"/>
<path d="M9.20045 0C7.99223 -1.31501e-08 6.79584 0.217202 5.67959 0.639204C4.56334 1.06121 3.54909 1.67975 2.69475 2.4595C1.84041 3.23926 1.16271 4.16497 0.700342 5.18378C0.237976 6.20258 -1.82436e-07 7.29453 0 8.39727H3.26049C3.26049 7.68532 3.41414 6.98035 3.71265 6.32259C4.01116 5.66483 4.44869 5.06718 5.00027 4.56376C5.55184 4.06033 6.20666 3.66099 6.92733 3.38854C7.64799 3.11609 8.4204 2.97586 9.20045 2.97586V0Z" fill="black"/>
</svg>
