<svg width="17" height="85" viewBox="0 0 17 85" fill="none" xmlns="http://www.w3.org/2000/svg">
<path fill-rule="evenodd" clip-rule="evenodd" d="M4.9109 0.0501647C5.80219 0.00928806 6.08629 0 8.35582 0C10.6258 0 10.9094 0.00975171 11.8002 0.0501647C12.6901 0.0905777 13.2978 0.232247 13.8293 0.438941C14.3868 0.648957 14.8918 0.978014 15.3092 1.40322C15.7342 1.82083 16.0632 2.32617 16.273 2.88401C16.4795 3.41585 16.6206 4.02386 16.6615 4.91382C16.7024 5.80564 16.7116 6.08991 16.7116 8.36079C16.7116 10.6317 16.7019 10.9159 16.6615 11.8078C16.6211 12.6977 16.4795 13.3057 16.273 13.8376C16.0594 14.3871 15.7734 14.8538 15.3092 15.3183C14.8919 15.7436 14.3868 16.0727 13.8293 16.2826C13.2978 16.4893 12.6901 16.6305 11.8008 16.6714C10.9094 16.7123 10.6253 16.7216 8.35582 16.7216C6.08629 16.7216 5.80219 16.7118 4.9109 16.6714C4.02148 16.631 3.41382 16.4893 2.8823 16.2826C2.33313 16.069 1.8666 15.7828 1.40239 15.3183C0.977358 14.9007 0.648473 14.3954 0.438681 13.8376C0.23211 13.3057 0.0909873 12.6977 0.0501349 11.8078C0.00928255 10.9159 0 10.6321 0 8.36079C0 6.08944 0.00974592 5.80564 0.0501349 4.91429C0.0905239 4.02386 0.23211 3.41585 0.438681 2.88401C0.648571 2.32621 0.977434 1.82089 1.40239 1.40322C1.81974 0.977938 2.32478 0.648858 2.8823 0.438941C3.41382 0.232247 4.02148 0.0910414 4.9109 0.0501647ZM11.7325 1.55511C10.8514 1.51516 10.5868 1.50633 8.35582 1.50633C6.12482 1.50633 5.86022 1.51516 4.97914 1.55511C4.16445 1.59227 3.72206 1.72836 3.42774 1.84309C3.03781 1.99451 2.75927 2.17566 2.46682 2.46829C2.17484 2.76091 1.99333 3.03961 1.842 3.42978C1.72733 3.72427 1.59132 4.16692 1.55418 4.9821C1.51426 5.8637 1.50544 6.12846 1.50544 8.36079C1.50544 10.5931 1.51426 10.8579 1.55418 11.7395C1.59132 12.5546 1.72733 12.9973 1.842 13.2918C1.97586 13.655 2.18937 13.9835 2.46682 14.2533C2.73641 14.5309 3.06477 14.7446 3.42774 14.8785C3.72206 14.9932 4.16445 15.1293 4.97914 15.1665C5.86022 15.2064 6.12435 15.2153 8.35582 15.2153C10.5873 15.2153 10.8514 15.2064 11.7325 15.1665C12.5472 15.1293 12.9896 14.9932 13.2839 14.8785C13.6738 14.7271 13.9524 14.5459 14.2449 14.2533C14.5223 13.9836 14.7358 13.655 14.8696 13.2918C14.9843 12.9973 15.1203 12.5546 15.1575 11.7395C15.1974 10.8579 15.2062 10.5931 15.2062 8.36079C15.2062 6.12846 15.1974 5.8637 15.1575 4.9821C15.1203 4.16692 14.9843 3.72427 14.8696 3.42978C14.7183 3.03961 14.5373 2.76091 14.2449 2.46829C13.9524 2.17613 13.6738 1.99451 13.2839 1.84309C12.9896 1.72836 12.5472 1.59227 11.7325 1.55511ZM7.28894 10.9381C7.62719 11.0783 7.98969 11.1505 8.35582 11.1505C9.09531 11.1505 9.80442 10.8566 10.3273 10.3334C10.8502 9.81024 11.1439 9.10064 11.1439 8.36079C11.1439 7.62093 10.8502 6.91133 10.3273 6.38816C9.80442 5.86499 9.09531 5.57107 8.35582 5.57107C7.98969 5.57107 7.62719 5.64323 7.28894 5.78342C6.9506 5.92362 6.64328 6.1291 6.38439 6.38816C6.12549 6.64721 5.92012 6.95473 5.78001 7.29319C5.6399 7.63165 5.56779 7.99443 5.56779 8.36079C5.56779 8.72714 5.6399 9.08992 5.78001 9.42838C5.92012 9.76684 6.12549 10.0744 6.38439 10.3334C6.64328 10.5924 6.9506 10.798 7.28894 10.9381ZM5.3189 5.32203C6.12435 4.5161 7.21677 4.06333 8.35582 4.06333C9.49495 4.06333 10.5874 4.5161 11.3928 5.32203C12.1982 6.12796 12.6507 7.22106 12.6507 8.36079C12.6507 9.50051 12.1982 10.5936 11.3928 11.3996C10.5874 12.2055 9.49495 12.6582 8.35582 12.6582C7.21677 12.6582 6.12435 12.2055 5.3189 11.3996C4.51345 10.5936 4.06095 9.50051 4.06095 8.36079C4.06095 7.22106 4.51345 6.12796 5.3189 5.32203ZM13.6031 4.70361C13.7934 4.5131 13.9004 4.25472 13.9004 3.98531C13.9004 3.71588 13.7934 3.4575 13.6031 3.267C13.4126 3.0765 13.1544 2.96947 12.8851 2.96947C12.6159 2.96947 12.3577 3.0765 12.1673 3.267C11.9769 3.4575 11.8699 3.71588 11.8699 3.98531C11.8699 4.25472 11.9769 4.5131 12.1673 4.70361C12.3577 4.89412 12.6159 5.00114 12.8851 5.00114C13.1544 5.00114 13.4126 4.89412 13.6031 4.70361Z" fill="black"/>
<path d="M16.7116 43.4838C16.7116 38.865 12.9688 35.123 8.35582 35.123C3.73975 35.123 0 38.865 0 43.4838C0 47.6559 3.05458 51.1151 7.05023 51.7417V45.9011H4.92837V43.4844H7.05023V41.6413C7.05023 39.5464 8.29576 38.3895 10.2051 38.3895C11.1195 38.3895 12.0768 38.5525 12.0768 38.5525V40.6098H11.0213C9.98521 40.6098 9.66142 41.2552 9.66142 41.9162V43.4838H11.9786L11.6062 45.9006H9.66142V51.7412C13.6539 51.1146 16.7116 47.6553 16.7116 43.4833V43.4838Z" fill="black"/>
<path d="M4.70992 84.9945C6.08187 85.0404 7.4491 84.8107 8.73082 84.3189C10.0125 83.8271 11.1827 83.0832 12.1722 82.1312C13.1617 81.1792 13.9505 80.0384 14.4918 78.7762C15.0332 77.514 15.3162 76.156 15.3241 74.7825C15.9528 74.0039 16.4197 73.1075 16.6972 72.1459C16.718 72.0699 16.7163 71.9896 16.6924 71.9145C16.6686 71.8395 16.6235 71.7729 16.5627 71.7229C16.502 71.6729 16.428 71.6415 16.3498 71.6326C16.2716 71.6236 16.1925 71.6375 16.122 71.6724C15.7931 71.8309 15.4228 71.8821 15.0632 71.8188C14.7037 71.7555 14.3731 71.5809 14.1179 71.3197C13.7922 70.9628 13.3982 70.675 12.9593 70.4732C12.5204 70.2715 12.0455 70.1599 11.5627 70.1452C11.0799 70.1305 10.5991 70.2129 10.1487 70.3875C9.69832 70.5622 9.28756 70.8255 8.94074 71.1618C8.46589 71.622 8.11807 72.1972 7.93111 72.8317C7.74414 73.4661 7.72439 74.1381 7.87376 74.7825C4.76559 74.9681 2.63163 73.492 0.924452 71.4682C0.873165 71.4101 0.806076 71.3682 0.731377 71.3476C0.656678 71.327 0.577602 71.3286 0.503806 71.3522C0.430009 71.3759 0.364686 71.4205 0.315813 71.4806C0.266941 71.5408 0.236634 71.6139 0.228593 71.691C-0.0966327 73.4961 0.137973 75.3576 0.900903 77.0255C1.66383 78.6933 2.91855 80.0876 4.49653 81.0211C3.43848 82.2352 1.95266 82.9935 0.349209 83.1377C0.263305 83.152 0.184005 83.1928 0.122407 83.2543C0.060809 83.3159 0.0199966 83.3952 0.00568113 83.4812C-0.00863429 83.5671 0.00426392 83.6554 0.0425706 83.7336C0.0808772 83.8119 0.142675 83.8762 0.219315 83.9176C1.6143 84.6151 3.15049 84.9835 4.70992 84.9945Z" fill="#231F20"/>
</svg>
