<svg width="19" height="18" viewBox="0 0 19 18" fill="none" xmlns="http://www.w3.org/2000/svg">
<path d="M2.1189 6.73937C2.1189 5.91267 2.79047 5.24249 3.6189 5.24249H15.6189C16.4473 5.24249 17.1189 5.91267 17.1189 6.73937V14.9722C17.1189 15.7989 16.4473 16.4691 15.6189 16.4691H3.6189C2.79047 16.4691 2.1189 15.7989 2.1189 14.9722V6.73937Z" stroke="#1A1627" stroke-width="3" stroke-linecap="round" stroke-linejoin="round"/>
<path d="M12.6188 5.24219V2.99688C12.6188 2.17017 11.9472 1.5 11.1188 1.5H8.11877C7.29035 1.5 6.61877 2.17017 6.61877 2.99688V5.24219" stroke="#1A1627" stroke-width="3" stroke-linecap="round" stroke-linejoin="round"/>
<path d="M17.1189 8.98438L9.91305 10.4226C9.71887 10.4613 9.51892 10.4613 9.32475 10.4226L2.1189 8.98438" stroke="#1A1627" stroke-width="3" stroke-linecap="round" stroke-linejoin="round"/>
</svg>
