<svg width="48" height="34" viewBox="0 0 48 34" fill="none" xmlns="http://www.w3.org/2000/svg">
<path d="M22.159 21.0042V24.9791C22.159 26.0117 22.726 26.9736 23.6332 27.4687L30.7208 31.3304C31.5713 31.7973 32.5919 31.7973 33.4424 31.3304L40.53 27.4687C41.4372 26.9736 42.0042 26.0117 42.0042 24.9791V21.0042L33.4424 25.6722C32.5919 26.139 31.5713 26.139 30.7208 25.6722L22.159 21.0042ZM30.7208 7.33949L18.7712 13.8465C17.7931 14.384 17.7931 15.7986 18.7712 16.3361L30.7208 22.8431C31.5713 23.3099 32.5919 23.3099 33.4424 22.8431L44.8392 16.6332V24.9932C44.8392 25.7712 45.4771 26.4078 46.2568 26.4078C47.0364 26.4078 47.6743 25.7712 47.6743 24.9932V15.9259C47.6743 15.4025 47.3908 14.9357 46.9372 14.6811L33.4424 7.33949C32.5919 6.88684 31.5713 6.88684 30.7208 7.33949Z" fill="#1A1627"/>
</svg>
