<svg width="28" height="27" viewBox="0 0 28 27" fill="none" xmlns="http://www.w3.org/2000/svg">
<path d="M2.88086 10.2731C2.88086 9.04658 3.87726 8.05225 5.10639 8.05225H22.9107C24.1398 8.05225 25.1362 9.04658 25.1362 10.2731V22.4881C25.1362 23.7147 24.1398 24.709 22.9107 24.709H5.10639C3.87726 24.709 2.88086 23.7147 2.88086 22.4881V10.2731Z" stroke="#4DA9E2" stroke-width="4" stroke-linecap="round" stroke-linejoin="round"/>
<path d="M18.4595 8.05225V4.7209C18.4595 3.49433 17.4631 2.5 16.234 2.5H11.7829C10.5538 2.5 9.55737 3.49433 9.55737 4.7209V8.05225" stroke="#4DA9E2" stroke-width="4" stroke-linecap="round" stroke-linejoin="round"/>
<path d="M25.1362 13.6045L14.445 15.7383C14.1569 15.7957 13.8602 15.7957 13.5721 15.7383L2.88086 13.6045" stroke="#4DA9E2" stroke-width="4" stroke-linecap="round" stroke-linejoin="round"/>
</svg>
