<svg width="11" height="11" viewBox="0 0 11 11" fill="none" xmlns="http://www.w3.org/2000/svg">
<rect y="4.40967" width="1.63165" height="4.53965" fill="black"/>
<rect x="3.63245" y="5.37524" width="1.56398" height="5.47436" fill="black"/>
<path d="M3.64075 5.37913C3.64075 4.76957 3.82756 4.17369 4.17757 3.66686C4.52757 3.16002 5.02505 2.76499 5.60709 2.53172C6.18913 2.29845 6.82959 2.23742 7.44748 2.35634C8.06537 2.47526 8.63294 2.76879 9.07841 3.19982C9.52388 3.63085 9.82725 4.18001 9.95016 4.77786C10.0731 5.37571 10.01 5.9954 9.7689 6.55857C9.52781 7.12173 9.11954 7.60307 8.59572 7.94173C8.0719 8.28039 7.45605 8.46114 6.82605 8.46114L6.82605 6.9562C7.14842 6.9562 7.46355 6.8637 7.73159 6.69041C7.99963 6.51712 8.20854 6.27082 8.33191 5.98265C8.45527 5.69448 8.48755 5.37738 8.42466 5.07146C8.36177 4.76554 8.20653 4.48453 7.97858 4.26398C7.75064 4.04342 7.46021 3.89322 7.14404 3.83237C6.82786 3.77152 6.50014 3.80275 6.20231 3.92211C5.90448 4.04148 5.64992 4.24361 5.47082 4.50296C5.29173 4.76231 5.19613 5.06722 5.19613 5.37913H3.64075Z" fill="black"/>
<path d="M4.60546 0C4.00066 -6.92105e-09 3.40179 0.114316 2.84303 0.336421C2.28427 0.558526 1.77656 0.88407 1.34891 1.29447C0.921251 1.70486 0.582015 2.19207 0.350569 2.72828C0.119124 3.26449 -9.13218e-08 3.83919 0 4.41958H1.6321C1.6321 4.04487 1.70901 3.67384 1.85844 3.32765C2.00786 2.98147 2.22688 2.66692 2.50298 2.40196C2.77908 2.137 3.10686 1.92682 3.4676 1.78343C3.82835 1.64003 4.21499 1.56623 4.60546 1.56623V0Z" fill="black"/>
</svg>
