<svg width="25" height="44" viewBox="0 0 25 44" fill="none" xmlns="http://www.w3.org/2000/svg">
<path d="M24.085 0.915007C24.6709 1.50106 25 2.29582 25 3.1245C25 3.95318 24.6709 4.74794 24.085 5.33399L7.54348 21.8755L24.085 38.417C24.6543 39.0064 24.9693 39.7959 24.9621 40.6153C24.955 41.4347 24.6264 42.2185 24.0469 42.7979C23.4675 43.3774 22.6837 43.706 21.8643 43.7132C21.0448 43.7203 20.2554 43.4053 19.666 42.836L0.915007 24.085C0.329129 23.4989 0 22.7042 0 21.8755C0 21.0468 0.329129 20.2521 0.915007 19.666L19.666 0.915007C20.2521 0.329129 21.0468 0 21.8755 0C22.7042 0 23.4989 0.329129 24.085 0.915007Z" fill="#0D0D0D"/>
</svg>
