<svg width="25" height="44" viewBox="0 0 25 44" fill="none" xmlns="http://www.w3.org/2000/svg">
<path d="M0.915007 42.7979C0.329128 42.2118 0 41.4171 0 40.5884C0 39.7597 0.329128 38.965 0.915007 38.3789L17.4565 21.8374L0.915007 5.29588C0.345734 4.70647 0.0307331 3.91705 0.0378532 3.09764C0.0449753 2.27823 0.373644 1.4944 0.953075 0.914967C1.53251 0.335533 2.31634 0.00686264 3.13575 -0.000259399C3.95516 -0.00738144 4.74458 0.307617 5.33399 0.876892L24.085 19.6279C24.6709 20.214 25 21.0087 25 21.8374C25 22.6661 24.6709 23.4608 24.085 24.0469L5.33399 42.7979C4.74794 43.3838 3.95318 43.7129 3.1245 43.7129C2.29582 43.7129 1.50106 43.3838 0.915007 42.7979Z" fill="#0D0D0D"/>
</svg>
