<svg width="11" height="11" viewBox="0 0 11 11" fill="none" xmlns="http://www.w3.org/2000/svg">
<path d="M5.63974 10.3741H5.58965C4.9026 10.369 4.22351 10.2303 3.59213 9.96607C2.96075 9.70187 2.38978 9.31749 1.91266 8.83543C1.02789 7.91287 0.524957 6.70345 0.500904 5.44058C0.476851 4.17771 0.933388 2.95092 1.78241 1.99695C2.32939 1.39924 3.01702 0.939957 3.78622 0.658563C3.87597 0.624888 3.97376 0.617114 4.06793 0.636169C4.16209 0.655225 4.24863 0.700304 4.31723 0.766025C4.38076 0.829194 4.4255 0.908001 4.44667 0.994032C4.46785 1.08006 4.46466 1.17009 4.43745 1.25449C4.16291 1.98764 4.10852 2.78194 4.28066 3.54417C4.4528 4.3064 4.84433 5.00495 5.4093 5.55785C5.97955 6.10705 6.69766 6.48753 7.4805 6.65523C8.26334 6.82294 9.07889 6.77101 9.83271 6.50547C9.92244 6.47467 10.0193 6.46942 10.112 6.49033C10.2046 6.51123 10.2893 6.55744 10.356 6.62353C10.4228 6.68962 10.4688 6.77288 10.4888 6.86356C10.5088 6.95423 10.5019 7.04859 10.4689 7.13558C10.213 7.80171 9.81324 8.40641 9.29669 8.9087C8.8162 9.37582 8.24577 9.74575 7.61819 9.99723C6.99061 10.2487 6.31825 10.3768 5.63974 10.3741ZM3.21513 2.03114C2.96349 2.20323 2.73318 2.40321 2.52883 2.62707C1.83978 3.39695 1.46852 4.38892 1.48703 5.41058C1.50554 6.43224 1.91251 7.4108 2.62902 8.15647C3.01401 8.54636 3.47526 8.85703 3.98549 9.07013C4.49573 9.28323 5.0446 9.39444 5.59967 9.39717H5.63974C6.3041 9.3968 6.95879 9.24195 7.54949 8.94547C8.14018 8.64899 8.64985 8.21943 9.0362 7.69243C8.24888 7.79191 7.44864 7.7141 6.69697 7.465C5.94529 7.21589 5.26217 6.80212 4.70007 6.25544C4.13796 5.70877 3.71184 5.04375 3.45443 4.31146C3.19701 3.57917 3.11515 2.79909 3.21513 2.03114Z" fill="#1A1627"/>
</svg>
