<svg width="24" height="23" viewBox="0 0 24 23" fill="none" xmlns="http://www.w3.org/2000/svg">
<path d="M12.148 22.8026H12.0296C10.4058 22.7907 8.80069 22.4662 7.3084 21.8482C5.8161 21.2302 4.46659 20.331 3.33888 19.2034C1.2477 17.0454 0.0589875 14.2163 0.00213724 11.2622C-0.054713 8.30815 1.02433 5.43845 3.03103 3.20696C4.32385 1.80881 5.9491 0.734458 7.76713 0.0762256C7.97926 -0.00254727 8.21041 -0.0207323 8.43296 0.0238421C8.65551 0.0684165 8.86007 0.173866 9.0222 0.327598C9.17235 0.475362 9.2781 0.659707 9.32815 0.860948C9.3782 1.06219 9.37067 1.27277 9.30636 1.4702C8.65746 3.18518 8.5289 5.04318 8.93576 6.82618C9.34262 8.60919 10.268 10.2432 11.6034 11.5365C12.9512 12.8212 14.6485 13.7112 16.4988 14.1035C18.349 14.4958 20.2766 14.3744 22.0583 13.7532C22.2704 13.6812 22.4993 13.6689 22.7184 13.7178C22.9374 13.7667 23.1375 13.8748 23.2952 14.0294C23.4529 14.184 23.5618 14.3787 23.609 14.5908C23.6563 14.8029 23.64 15.0237 23.562 15.2271C22.9572 16.7853 22.0123 18.1998 20.7914 19.3748C19.6557 20.4675 18.3075 21.3328 16.8242 21.9211C15.3409 22.5093 13.7517 22.8089 12.148 22.8026ZM6.41734 3.28694C5.82258 3.68948 5.27823 4.15727 4.79523 4.68092C3.16665 6.48182 2.28914 8.8022 2.3329 11.1921C2.37665 13.5819 3.33854 15.8709 5.03203 17.6152C5.94199 18.5272 7.03216 19.2539 8.23813 19.7524C9.4441 20.2509 10.7414 20.511 12.0533 20.5174H12.148C13.7183 20.5165 15.2657 20.1543 16.6618 19.4608C18.0579 18.7673 19.2626 17.7625 20.1757 16.5297C18.3148 16.7624 16.4235 16.5804 14.6468 15.9977C12.8702 15.415 11.2556 14.4471 9.92706 13.1683C8.5985 11.8896 7.59134 10.334 6.98293 8.62101C6.37451 6.90805 6.18103 5.08331 6.41734 3.28694Z" fill="#1A1627"/>
</svg>
