<svg width="37" height="34" viewBox="0 0 37 34" fill="none" xmlns="http://www.w3.org/2000/svg">
<path d="M10.2441 33.1475C13.2281 33.2474 16.2018 32.748 18.9895 31.679C21.7773 30.61 24.3224 28.993 26.4746 26.9237C28.6268 24.8543 30.3423 22.3745 31.5197 19.6308C32.6972 16.8871 33.3127 13.9352 33.3299 10.9496C34.6974 9.25735 35.7128 7.30881 36.3165 5.21851C36.3616 5.05336 36.358 4.87871 36.3061 4.71558C36.2542 4.55245 36.1562 4.4078 36.024 4.29905C35.8918 4.1903 35.731 4.12208 35.5609 4.10262C35.3908 4.08315 35.2187 4.11327 35.0654 4.18934C34.35 4.53372 33.5445 4.64495 32.7625 4.50738C31.9806 4.36981 31.2615 3.99037 30.7065 3.4225C29.9981 2.64674 29.1412 2.02107 28.1865 1.58255C27.2319 1.14403 26.1989 0.901599 25.1489 0.869608C24.0988 0.837616 23.053 1.01672 22.0734 1.39631C21.0939 1.7759 20.2005 2.34825 19.4461 3.07944C18.4133 4.07968 17.6568 5.33009 17.2502 6.70915C16.8435 8.08822 16.8006 9.54903 17.1254 10.9496C10.3652 11.3532 5.72379 8.1446 2.01068 3.74538C1.89914 3.61905 1.75322 3.52795 1.59075 3.48318C1.42828 3.43841 1.25629 3.44193 1.09578 3.49329C0.935271 3.54465 0.793193 3.64164 0.686895 3.77241C0.580597 3.90319 0.514679 4.06208 0.497191 4.2297C-0.210176 8.15353 0.300093 12.1999 1.95946 15.8252C3.61884 19.4506 6.34784 22.4814 9.77995 24.5105C7.47871 27.1497 4.24704 28.7981 0.75953 29.1115C0.572689 29.1425 0.40021 29.2311 0.266235 29.365C0.13226 29.4989 0.0434925 29.6713 0.0123565 29.8581C-0.0187796 30.0449 0.00927404 30.2368 0.0925911 30.4069C0.175908 30.577 0.310319 30.7167 0.477011 30.8066C3.5111 32.3229 6.85231 33.1237 10.2441 33.1475Z" fill="white"/>
</svg>
