<svg width="37" height="37" viewBox="0 0 37 37" fill="none" xmlns="http://www.w3.org/2000/svg">
<path fill-rule="evenodd" clip-rule="evenodd" d="M10.6812 0.503087C12.6198 0.414233 13.2377 0.394043 18.1739 0.394043C23.1111 0.394043 23.728 0.41524 25.6656 0.503087C27.6011 0.590933 28.9228 0.898882 30.0788 1.34817C31.2914 1.80469 32.3897 2.51996 33.2976 3.44424C34.222 4.35199 34.9374 5.45046 35.3937 6.66304C35.843 7.8191 36.1499 9.14076 36.2388 11.0753C36.3277 13.0138 36.3479 13.6317 36.3479 18.568C36.3479 23.5042 36.3267 24.1221 36.2388 26.0608C36.1509 27.9951 35.843 29.3169 35.3937 30.4729C34.9293 31.6674 34.3073 32.682 33.2976 33.6916C32.3899 34.616 31.2914 35.3314 30.0788 35.7878C28.9228 36.237 27.6011 36.544 25.6667 36.6329C23.728 36.7217 23.1101 36.7419 18.1739 36.7419C13.2377 36.7419 12.6198 36.7207 10.6812 36.6329C8.74671 36.545 7.42506 36.237 6.269 35.7878C5.07456 35.3233 4.05986 34.7013 3.0502 33.6916C2.12575 32.7839 1.41043 31.6854 0.954131 30.4729C0.504839 29.3169 0.197898 27.9951 0.109044 26.0608C0.0201896 24.1221 0 23.5052 0 18.568C0 13.6307 0.0211974 13.0138 0.109044 11.0763C0.19689 9.14076 0.504839 7.8191 0.954131 6.66304C1.41064 5.45054 2.12592 4.35213 3.0502 3.44424C3.95793 2.5198 5.0564 1.80447 6.269 1.34817C7.42506 0.898882 8.74671 0.59194 10.6812 0.503087ZM25.5182 3.77439C23.6018 3.68756 23.0264 3.66837 18.1739 3.66837C13.3215 3.66837 12.746 3.68756 10.8296 3.77439C9.05769 3.85517 8.09548 4.15099 7.45534 4.40039C6.60723 4.72953 6.00143 5.1233 5.36534 5.75938C4.73028 6.39547 4.33549 7.00127 4.00634 7.84938C3.75695 8.48952 3.46113 9.45173 3.38035 11.2237C3.29351 13.14 3.27433 13.7155 3.27433 18.568C3.27433 23.4204 3.29351 23.9959 3.38035 25.9122C3.46113 27.6842 3.75695 28.6464 4.00634 29.2866C4.29749 30.076 4.76188 30.7901 5.36534 31.3766C5.9517 31.98 6.66588 32.4444 7.45534 32.7355C8.09548 32.985 9.05769 33.2808 10.8296 33.3615C12.746 33.4485 13.3205 33.4676 18.1739 33.4676C23.0274 33.4676 23.6018 33.4485 25.5182 33.3615C27.2901 33.2808 28.2524 32.985 28.8926 32.7355C29.7406 32.4064 30.3465 32.0127 30.9826 31.3766C31.586 30.7903 32.0504 30.076 32.3415 29.2866C32.591 28.6464 32.8867 27.6842 32.9675 25.9122C33.0544 23.9959 33.0736 23.4204 33.0736 18.568C33.0736 13.7155 33.0544 13.14 32.9675 11.2237C32.8867 9.45173 32.591 8.48952 32.3415 7.84938C32.0124 7.00127 31.6187 6.39547 30.9826 5.75938C30.3465 5.12432 29.7406 4.72953 28.8926 4.40039C28.2524 4.15099 27.2901 3.85517 25.5182 3.77439ZM15.8534 24.1703C16.5892 24.4752 17.3776 24.6319 18.1739 24.6319C19.7823 24.6319 21.3246 23.9931 22.4618 22.8559C23.5992 21.7187 24.2381 20.1762 24.2381 18.568C24.2381 16.9597 23.5992 15.4173 22.4618 14.28C21.3246 13.1428 19.7823 12.5039 18.1739 12.5039C17.3776 12.5039 16.5892 12.6608 15.8534 12.9655C15.1176 13.2703 14.4491 13.7169 13.8861 14.28C13.323 14.8431 12.8763 15.5116 12.5715 16.2473C12.2668 16.983 12.1099 17.7716 12.1099 18.568C12.1099 19.3643 12.2668 20.1529 12.5715 20.8886C12.8763 21.6243 13.323 22.2928 13.8861 22.8559C14.4491 23.4189 15.1176 23.8657 15.8534 24.1703ZM11.5686 11.9626C13.3205 10.2107 15.6965 9.22656 18.1739 9.22656C20.6515 9.22656 23.0275 10.2107 24.7793 11.9626C26.5311 13.7144 27.5153 16.0905 27.5153 18.568C27.5153 21.0454 26.5311 23.4214 24.7793 25.1734C23.0275 26.9252 20.6515 27.9094 18.1739 27.9094C15.6965 27.9094 13.3205 26.9252 11.5686 25.1734C9.81676 23.4214 8.83258 21.0454 8.83258 18.568C8.83258 16.0905 9.81676 13.7144 11.5686 11.9626ZM29.5867 10.6183C30.0007 10.2042 30.2333 9.64257 30.2333 9.05694C30.2333 8.4713 30.0007 7.90966 29.5867 7.49555C29.1725 7.08145 28.6109 6.84881 28.0252 6.84881C27.4397 6.84881 26.8779 7.08145 26.4639 7.49555C26.0497 7.90966 25.8171 8.4713 25.8171 9.05694C25.8171 9.64257 26.0497 10.2042 26.4639 10.6183C26.8779 11.0324 27.4397 11.2651 28.0252 11.2651C28.6109 11.2651 29.1725 11.0324 29.5867 10.6183Z" fill="white"/>
</svg>
