<svg width="38" height="39" viewBox="0 0 38 39" fill="none" xmlns="http://www.w3.org/2000/svg">
<path d="M20.4818 13.3594C21.7101 13.3594 22.8881 13.8494 23.7566 14.7214C24.6252 15.5935 25.1131 16.7763 25.1131 18.0097C25.1131 18.4208 25.2758 18.815 25.5653 19.1057C25.8548 19.3964 26.2475 19.5597 26.6569 19.5597C27.0664 19.5597 27.459 19.3964 27.7486 19.1057C28.0381 18.815 28.2007 18.4208 28.2007 18.0097C28.2007 15.9541 27.3875 13.9828 25.9399 12.5293C24.4923 11.0758 22.529 10.2593 20.4818 10.2593C20.0723 10.2593 19.6796 10.4226 19.3901 10.7133C19.1006 11.004 18.938 11.3982 18.938 11.8094C18.938 12.2205 19.1006 12.6147 19.3901 12.9054C19.6796 13.1961 20.0723 13.3594 20.4818 13.3594Z" fill="white"/>
<path d="M20.4818 7.15923C23.3478 7.15923 26.0965 8.30241 28.1231 10.3373C30.1498 12.3721 31.2883 15.132 31.2883 18.0098C31.2883 18.4209 31.451 18.8151 31.7405 19.1058C32.03 19.3965 32.4227 19.5598 32.8321 19.5598C33.2415 19.5598 33.6342 19.3965 33.9237 19.1058C34.2133 18.8151 34.3759 18.4209 34.3759 18.0098C34.3759 14.3098 32.9121 10.7614 30.3064 8.14514C27.7007 5.52888 24.1667 4.05908 20.4818 4.05908C20.0723 4.05908 19.6796 4.22239 19.3901 4.51309C19.1006 4.80378 18.938 5.19805 18.938 5.60916C18.938 6.02026 19.1006 6.41453 19.3901 6.70523C19.6796 6.99592 20.0723 7.15923 20.4818 7.15923Z" fill="white"/>
<path d="M33.9899 25.6209C33.905 25.372 33.7585 25.149 33.564 24.9727C33.3695 24.7965 33.1336 24.6728 32.8784 24.6133L23.6156 22.4897C23.3642 22.4325 23.1025 22.4394 22.8544 22.5098C22.6063 22.5802 22.3798 22.7118 22.1954 22.8927C21.9792 23.0943 21.9638 23.1098 20.9603 25.0319C17.6307 23.4913 14.9627 20.8015 13.442 17.452C15.4027 16.4599 15.4181 16.4599 15.6188 16.2274C15.799 16.0423 15.9301 15.8148 16.0002 15.5657C16.0703 15.3166 16.0772 15.0538 16.0202 14.8014L13.9052 5.6094C13.846 5.35317 13.7228 5.11628 13.5472 4.92103C13.3717 4.72578 13.1495 4.57861 12.9017 4.49335C12.5412 4.36405 12.1689 4.2706 11.7902 4.21433C11.4 4.12349 11.0018 4.07157 10.6015 4.05933C8.71803 4.05933 6.91175 4.81056 5.57997 6.14776C4.24819 7.48496 3.5 9.29859 3.5 11.1897C3.50817 17.5182 6.01559 23.5851 10.4724 28.0601C14.9292 32.535 20.9716 35.0526 27.2744 35.0608C28.207 35.0608 29.1305 34.8764 29.992 34.5181C30.8536 34.1597 31.6365 33.6345 32.2959 32.9724C32.9554 32.3103 33.4784 31.5243 33.8353 30.6592C34.1922 29.7941 34.3759 28.8669 34.3759 27.9305C34.3764 27.536 34.3454 27.142 34.2833 26.7524C34.2184 26.3674 34.1202 25.9888 33.9899 25.6209ZM27.2744 31.9607C21.7892 31.9566 16.5298 29.7669 12.6511 25.8725C8.77249 21.978 6.59168 16.6972 6.58759 11.1897C6.59166 10.1221 7.01585 9.09933 7.76772 8.34441C8.51958 7.58948 9.53816 7.16356 10.6015 7.15948H11.1109L12.7628 14.3518L11.9291 14.7859C10.6015 15.4834 9.55168 16.0414 10.1074 17.2505C11.0125 19.8229 12.4768 22.1607 14.3942 24.0939C16.3115 26.0271 18.6336 27.5071 21.1919 28.4265C22.4887 28.9535 22.9981 27.977 23.6928 26.6284L24.1405 25.7759L31.2883 27.419V27.9305C31.2842 28.9981 30.86 30.0208 30.1082 30.7758C29.3563 31.5307 28.3377 31.9566 27.2744 31.9607Z" fill="white"/>
</svg>
