<svg width="38" height="30" viewBox="0 0 38 30" fill="none" xmlns="http://www.w3.org/2000/svg">
<path d="M18.4093 8.11439L6.55067 17.9211V28.5054C6.55067 28.7794 6.65909 29.0422 6.85209 29.236C7.04509 29.4298 7.30685 29.5387 7.57979 29.5387L14.7875 29.5199C15.0595 29.5186 15.32 29.4091 15.5118 29.2155C15.7037 29.0218 15.8114 28.7598 15.8114 28.4866V22.3055C15.8114 22.0315 15.9199 21.7687 16.1129 21.5749C16.3059 21.3811 16.5676 21.2722 16.8406 21.2722H20.957C21.23 21.2722 21.4917 21.3811 21.6847 21.5749C21.8777 21.7687 21.9861 22.0315 21.9861 22.3055V28.4821C21.9857 28.6181 22.012 28.7528 22.0636 28.8785C22.1151 29.0043 22.1908 29.1186 22.2864 29.2149C22.382 29.3112 22.4956 29.3876 22.6207 29.4397C22.7458 29.4918 22.8798 29.5186 23.0153 29.5186L30.2204 29.5387C30.4933 29.5387 30.7551 29.4298 30.9481 29.236C31.1411 29.0422 31.2495 28.7794 31.2495 28.5054V17.914L19.3934 8.11439C19.254 8.00159 19.0804 7.94007 18.9014 7.94007C18.7223 7.94007 18.5487 8.00159 18.4093 8.11439ZM37.1412 14.7799L31.7641 10.3295V1.38435C31.7641 1.17882 31.6827 0.981698 31.538 0.836361C31.3932 0.691024 31.1969 0.609375 30.9922 0.609375H27.3903C27.1856 0.609375 26.9893 0.691024 26.8445 0.836361C26.6998 0.981698 26.6185 1.17882 26.6185 1.38435V6.07362L20.8599 1.31654C20.3073 0.859938 19.6138 0.610288 18.8982 0.610288C18.1825 0.610288 17.489 0.859938 16.9364 1.31654L0.655112 14.7799C0.576955 14.8447 0.512293 14.9244 0.46482 15.0144C0.417347 15.1043 0.387993 15.2028 0.378436 15.3042C0.368879 15.4055 0.379306 15.5078 0.409121 15.6051C0.438936 15.7024 0.487555 15.7928 0.5522 15.8713L2.19236 17.8733C2.25683 17.952 2.33612 18.0172 2.42571 18.0651C2.51529 18.113 2.61341 18.1427 2.71444 18.1525C2.81546 18.1622 2.91742 18.1519 3.01447 18.1221C3.11152 18.0922 3.20175 18.0435 3.28001 17.9786L18.4093 5.46655C18.5487 5.35374 18.7223 5.29223 18.9014 5.29223C19.0804 5.29223 19.254 5.35374 19.3934 5.46655L34.5234 17.9786C34.6015 18.0435 34.6916 18.0923 34.7885 18.1222C34.8854 18.1522 34.9873 18.1626 35.0882 18.153C35.1891 18.1435 35.2872 18.114 35.3768 18.0663C35.4664 18.0186 35.5458 17.9537 35.6104 17.8752L37.2505 15.8732C37.3151 15.7943 37.3635 15.7034 37.393 15.6057C37.4225 15.5079 37.4324 15.4053 37.4222 15.3037C37.4121 15.2021 37.382 15.1035 37.3338 15.0136C37.2855 14.9237 37.2201 14.8443 37.1412 14.7799Z" fill="white"/>
</svg>
