<svg width="36" height="62" viewBox="0 0 36 62" fill="none" xmlns="http://www.w3.org/2000/svg">
<path d="M1.92688 59.9591C1.10665 59.1386 0.645874 58.026 0.645874 56.8658C0.645874 55.7057 1.10665 54.593 1.92688 53.7725L25.085 30.6144L1.92688 7.4563C1.1299 6.63112 0.688901 5.52593 0.69887 4.37876C0.708838 3.23158 1.16898 2.13422 1.98018 1.32302C2.79138 0.511812 3.88875 0.0516705 5.03592 0.0417019C6.18309 0.0317332 7.28828 0.472732 8.11346 1.26972L34.3649 27.5211C35.1851 28.3416 35.6459 29.4543 35.6459 30.6144C35.6459 31.7746 35.1851 32.8872 34.3649 33.7077L8.11346 59.9591C7.29298 60.7793 6.18033 61.2401 5.02017 61.2401C3.86002 61.2401 2.74736 60.7793 1.92688 59.9591Z" fill="white"/>
</svg>
