<svg width="19" height="33" viewBox="0 0 19 33" fill="none" xmlns="http://www.w3.org/2000/svg">
<mask id="path-1-inside-1_1_744" fill="white">
<path fill-rule="evenodd" clip-rule="evenodd" d="M9.5 6.01718C9.75196 6.01718 9.99359 6.12284 10.1718 6.31091C10.3499 6.49898 10.45 6.75407 10.45 7.02004V11.0315C10.45 11.2975 10.3499 11.5526 10.1718 11.7406C9.99359 11.9287 9.75196 12.0344 9.5 12.0344C9.24804 12.0344 9.00641 11.9287 8.82825 11.7406C8.65009 11.5526 8.55 11.2975 8.55 11.0315V7.02004C8.55 6.75407 8.65009 6.49898 8.82825 6.31091C9.00641 6.12284 9.24804 6.01718 9.5 6.01718ZM17.1 22.063V10.0286C17.1 7.90082 16.2993 5.86017 14.874 4.35558C13.4487 2.85099 11.5156 2.00573 9.5 2.00573C7.48435 2.00573 5.55126 2.85099 4.12599 4.35558C2.70071 5.86017 1.9 7.90082 1.9 10.0286V22.063C1.9 24.1908 2.70071 26.2315 4.12599 27.736C5.55126 29.2406 7.48435 30.0859 9.5 30.0859C11.5156 30.0859 13.4487 29.2406 14.874 27.736C16.2993 26.2315 17.1 24.1908 17.1 22.063ZM9.5 0C6.98044 0 4.56408 1.05658 2.78249 2.93732C1.00089 4.81805 0 7.36887 0 10.0286V22.063C0 24.7227 1.00089 27.2736 2.78249 29.1543C4.56408 31.035 6.98044 32.0916 9.5 32.0916C12.0196 32.0916 14.4359 31.035 16.2175 29.1543C17.9991 27.2736 19 24.7227 19 22.063V10.0286C19 7.36887 17.9991 4.81805 16.2175 2.93732C14.4359 1.05658 12.0196 0 9.5 0Z"/>
</mask>
<path fill-rule="evenodd" clip-rule="evenodd" d="M9.5 6.01718C9.75196 6.01718 9.99359 6.12284 10.1718 6.31091C10.3499 6.49898 10.45 6.75407 10.45 7.02004V11.0315C10.45 11.2975 10.3499 11.5526 10.1718 11.7406C9.99359 11.9287 9.75196 12.0344 9.5 12.0344C9.24804 12.0344 9.00641 11.9287 8.82825 11.7406C8.65009 11.5526 8.55 11.2975 8.55 11.0315V7.02004C8.55 6.75407 8.65009 6.49898 8.82825 6.31091C9.00641 6.12284 9.24804 6.01718 9.5 6.01718ZM17.1 22.063V10.0286C17.1 7.90082 16.2993 5.86017 14.874 4.35558C13.4487 2.85099 11.5156 2.00573 9.5 2.00573C7.48435 2.00573 5.55126 2.85099 4.12599 4.35558C2.70071 5.86017 1.9 7.90082 1.9 10.0286V22.063C1.9 24.1908 2.70071 26.2315 4.12599 27.736C5.55126 29.2406 7.48435 30.0859 9.5 30.0859C11.5156 30.0859 13.4487 29.2406 14.874 27.736C16.2993 26.2315 17.1 24.1908 17.1 22.063ZM9.5 0C6.98044 0 4.56408 1.05658 2.78249 2.93732C1.00089 4.81805 0 7.36887 0 10.0286V22.063C0 24.7227 1.00089 27.2736 2.78249 29.1543C4.56408 31.035 6.98044 32.0916 9.5 32.0916C12.0196 32.0916 14.4359 31.035 16.2175 29.1543C17.9991 27.2736 19 24.7227 19 22.063V10.0286C19 7.36887 17.9991 4.81805 16.2175 2.93732C14.4359 1.05658 12.0196 0 9.5 0Z" fill="#776AD9"/>
<path d="M9.5 6.01718V26.0172V6.01718ZM17.1 22.063H37.1H17.1ZM17.1 10.0286H37.1H17.1ZM9.5 2.00573V-17.9943V2.00573ZM1.9 10.0286H-18.1H1.9ZM1.9 22.063H-18.1H1.9ZM9.5 30.0859V50.0859V30.0859ZM0 10.0286H-20H0ZM9.5 32.0916V52.0916V32.0916ZM19 22.063H39H19ZM19 10.0286H39H19ZM9.5 26.0172C4.08741 26.0172 -0.869243 23.7374 -4.34789 20.0652L24.6914 -7.44337C20.8564 -11.4917 15.4165 -13.9828 9.5 -13.9828V26.0172ZM-4.34789 20.0652C-7.79171 16.4297 -9.55 11.7194 -9.55 7.02004H30.45C30.45 1.78871 28.4915 -3.43176 24.6914 -7.44337L-4.34789 20.0652ZM-9.55 7.02004V11.0315H30.45V7.02004H-9.55ZM-9.55 11.0315C-9.55 6.33212 -7.79171 1.62181 -4.34789 -2.01365L24.6914 25.4949C28.4915 21.4833 30.45 16.2628 30.45 11.0315H-9.55ZM-4.34789 -2.01365C-0.869243 -5.68586 4.08741 -7.96564 9.5 -7.96564V32.0344C15.4165 32.0344 20.8564 29.5433 24.6914 25.4949L-4.34789 -2.01365ZM9.5 -7.96564C14.9126 -7.96564 19.8693 -5.68585 23.3479 -2.01365L-5.69139 25.4949C-1.85644 29.5432 3.58348 32.0344 9.5 32.0344V-7.96564ZM23.3479 -2.01365C26.7917 1.62177 28.55 6.33207 28.55 11.0315H-11.45C-11.45 16.2629 -9.4915 21.4833 -5.69139 25.4949L23.3479 -2.01365ZM28.55 11.0315V7.02004H-11.45V11.0315H28.55ZM28.55 7.02004C28.55 11.7195 26.7917 16.4298 23.3479 20.0652L-5.69139 -7.44337C-9.4915 -3.43179 -11.45 1.78867 -11.45 7.02004H28.55ZM23.3479 20.0652C19.8693 23.7374 14.9126 26.0172 9.5 26.0172V-13.9828C3.58348 -13.9828 -1.85644 -11.4917 -5.69139 -7.44337L23.3479 20.0652ZM37.1 22.063V10.0286H-2.9V22.063H37.1ZM37.1 10.0286C37.1 2.93544 34.4409 -4.0706 29.3937 -9.3987L0.354374 18.1099C-1.84231 15.7909 -2.9 12.8662 -2.9 10.0286H37.1ZM29.3937 -9.3987C24.3116 -14.7636 17.1802 -17.9943 9.5 -17.9943V22.0057C5.8511 22.0057 2.5859 20.4656 0.354374 18.1099L29.3937 -9.3987ZM9.5 -17.9943C1.81981 -17.9943 -5.31158 -14.7636 -10.3937 -9.3987L18.6456 18.1099C16.4141 20.4656 13.1489 22.0057 9.5 22.0057V-17.9943ZM-10.3937 -9.3987C-15.4409 -4.0706 -18.1 2.93544 -18.1 10.0286H21.9C21.9 12.8662 20.8423 15.7909 18.6456 18.1099L-10.3937 -9.3987ZM-18.1 10.0286V22.063H21.9V10.0286H-18.1ZM-18.1 22.063C-18.1 29.1562 -15.4409 36.1622 -10.3937 41.4903L18.6456 13.9818C20.8423 16.3007 21.9 19.2254 21.9 22.063H-18.1ZM-10.3937 41.4903C-5.31157 46.8552 1.81981 50.0859 9.5 50.0859V10.0859C13.1489 10.0859 16.4141 11.6261 18.6456 13.9818L-10.3937 41.4903ZM9.5 50.0859C17.1802 50.0859 24.3116 46.8552 29.3937 41.4903L0.354374 13.9818C2.5859 11.6261 5.8511 10.0859 9.5 10.0859V50.0859ZM29.3937 41.4903C34.4409 36.1622 37.1 29.1562 37.1 22.063H-2.9C-2.9 19.2254 -1.84231 16.3007 0.354374 13.9818L29.3937 41.4903ZM9.5 -20C1.3159 -20 -6.29876 -16.558 -11.7372 -10.817L17.3021 16.6916C15.4269 18.6711 12.645 20 9.5 20V-20ZM-11.7372 -10.817C-17.1407 -5.11272 -20 2.40349 -20 10.0286H20C20 12.3343 19.1425 14.7488 17.3021 16.6916L-11.7372 -10.817ZM-20 10.0286V22.063H20V10.0286H-20ZM-20 22.063C-20 29.6881 -17.1407 37.2043 -11.7372 42.9086L17.3021 15.4C19.1425 17.3428 20 19.7574 20 22.063H-20ZM-11.7372 42.9086C-6.29876 48.6496 1.3159 52.0916 9.5 52.0916V12.0916C12.645 12.0916 15.4269 13.4205 17.3021 15.4L-11.7372 42.9086ZM9.5 52.0916C17.6841 52.0916 25.2988 48.6496 30.7372 42.9086L1.69788 15.4C3.57308 13.4205 6.35501 12.0916 9.5 12.0916V52.0916ZM30.7372 42.9086C36.1407 37.2043 39 29.6881 39 22.063H-1C-1 19.7574 -0.142491 17.3428 1.69788 15.4L30.7372 42.9086ZM39 22.063V10.0286H-1V22.063H39ZM39 10.0286C39 2.40349 36.1407 -5.11272 30.7372 -10.817L1.69788 16.6916C-0.142491 14.7488 -1 12.3343 -1 10.0286H39ZM30.7372 -10.817C25.2988 -16.558 17.6841 -20 9.5 -20V20C6.35501 20 3.57308 18.6711 1.69788 16.6916L30.7372 -10.817Z" fill="#776AD9" mask="url(#path-1-inside-1_1_744)"/>
</svg>
