<svg width="184" height="140" viewBox="0 0 184 140" fill="none" xmlns="http://www.w3.org/2000/svg">
<path d="M140.1 127.431C139.177 131.401 138.704 133.819 136.735 136.488C135.422 138.268 133.272 139.289 131.082 139.032C129.179 138.809 127.336 137.99 125.483 137.274C104.054 128.993 86.7612 114.412 69.2899 100.1C65.1257 96.6883 56.3381 88.7906 51.3474 84.6415C63.4977 76.0169 68.5275 70.6829 68.5275 70.6829C88.1065 87.7499 110.934 107.729 134.757 117.723C138.553 119.316 142.105 118.8 140.1 127.431Z" fill="white"/>
<path d="M115.824 63.2849C110.312 58.9115 100.672 51.6505 95.2291 47.435C81.3989 36.7234 66.6489 27.7835 49.7279 22.6896C40.5631 19.9308 39.3594 10.6815 46.2883 2.51137C47.5476 1.02616 49.5165 0.0512651 51.4185 0.4508C82.9336 7.07564 106.783 26.4648 133.341 50.9358C124.355 55.7023 115.824 63.2849 115.824 63.2849Z" fill="white"/>
<path d="M97.0731 86.2506C116.751 66.2524 154.958 42.0895 174.226 41.2011C176.478 41.0975 178.617 42.2282 179.8 44.1551C181.698 47.2463 182.312 50.9472 182.878 54.5866C183.426 58.1031 181.6 61.1042 178.278 62.0384C155.259 68.5124 132.903 84.2529 114.757 99.2809C108.654 96.3869 97.0731 86.2506 97.0731 86.2506Z" fill="white"/>
<path d="M86.3321 48.3836C63.7271 67.3354 39.1987 89.9467 12.6822 98.0417C10.4435 98.725 7.972 98.1611 6.36183 96.4564C4.19572 94.1629 3.36643 91.8028 2.48803 89.5057C-0.579979 81.48 0.289882 79.1328 8.23253 76.0637C26.8769 68.8578 42.3899 56.8825 57.3989 44.0817C59.6718 42.1433 64.1799 38.4217 66.6663 36.369C74.8887 38.5818 86.3321 48.3836 86.3321 48.3836Z" fill="white"/>
<path d="M45.6067 118.31C52.0894 114.975 62.0693 111.038 68.5755 107.368C73.831 112.021 85.9991 121.289 85.9991 121.289C77.1759 127.212 63.1036 136.029 53.3066 138.573C50.9384 139.188 48.4235 138.263 46.9272 136.32C44.0628 132.598 42.4063 128.647 42.264 123.945C42.1928 121.587 43.5161 119.386 45.6067 118.31Z" fill="white"/>
<path d="M98.1679 14.4873C109.753 7.45153 122.788 2.16824 131.72 0.249191C134.177 -0.27828 136.744 0.798819 138.092 2.92729C140.655 6.97338 141.721 11.0395 141.459 15.4872C141.33 17.6815 140.118 19.6727 138.198 20.7255C132.594 23.7981 122.614 26.1939 116.878 28.7076C116.878 28.7076 106.763 20.1401 98.1679 14.4873Z" fill="white"/>
<path d="M167.275 72.6122C182.921 78.7138 188.693 80.783 177.278 96.6143C175.94 98.4697 173.813 98.4819 171.592 97.9551C164.473 96.2669 151.84 88.9581 144.847 84.8734C157.737 75.92 167.275 72.6122 167.275 72.6122Z" fill="white"/>
<path d="M18.8306 65.5197C14.9667 64.4104 7.61561 63.2397 4.24935 61.1813C2.72744 60.2507 1.70383 58.6304 1.48529 56.855C0.932199 52.3658 2.08039 48.3226 4.26074 44.2543C5.45235 42.0322 7.88468 40.7464 10.3832 41.0245C17.886 41.8614 31.445 47.5542 38.7854 50.9242C28.1549 60.7532 18.8306 65.5197 18.8306 65.5197Z" fill="white"/>
</svg>
