<svg width="30" height="148" viewBox="0 0 30 148" fill="none" xmlns="http://www.w3.org/2000/svg">
<path fill-rule="evenodd" clip-rule="evenodd" d="M8.93827 0.6905C10.4698 0.620019 10.9579 0.604004 14.8576 0.604004C18.758 0.604004 19.2454 0.620818 20.7761 0.6905C22.3051 0.760182 23.3493 1.00445 24.2626 1.36084C25.2205 1.72296 26.0882 2.29034 26.8055 3.0235C27.5358 3.74355 28.1009 4.61488 28.4614 5.57673C28.8163 6.49375 29.0588 7.54212 29.1291 9.07661C29.1993 10.6143 29.2152 11.1045 29.2152 15.02C29.2152 18.9355 29.1985 19.4257 29.1291 20.9635C29.0596 22.4979 28.8163 23.5463 28.4614 24.4633C28.0945 25.4108 27.6031 26.2156 26.8055 27.0165C26.0884 27.7498 25.2205 28.3172 24.2626 28.6792C23.3493 29.0355 22.3051 29.279 20.777 29.3495C19.2454 29.42 18.7573 29.436 14.8576 29.436C10.9579 29.436 10.4698 29.4193 8.93827 29.3495C7.41 29.2798 6.36588 29.0355 5.45258 28.6792C4.50896 28.3108 3.70733 27.8174 2.90969 27.0165C2.17937 26.2965 1.61425 25.4251 1.25377 24.4633C0.898828 23.5463 0.656341 22.4979 0.586146 20.9635C0.51595 19.4257 0.5 18.9363 0.5 15.02C0.5 11.1037 0.516746 10.6143 0.586146 9.07742C0.655545 7.54212 0.898828 6.49375 1.25377 5.57673C1.61442 4.61495 2.1795 3.74366 2.90969 3.0235C3.62681 2.29021 4.49461 1.72279 5.45258 1.36084C6.36588 1.00445 7.41 0.760981 8.93827 0.6905ZM20.6596 3.28538C19.1457 3.2165 18.6911 3.20129 14.8576 3.20129C11.0241 3.20129 10.5695 3.2165 9.05554 3.28538C7.65567 3.34946 6.89551 3.58411 6.3898 3.78194C5.71978 4.04302 5.24119 4.35537 4.73868 4.85993C4.23697 5.36449 3.92508 5.84503 3.66505 6.51777C3.46803 7.02554 3.23433 7.78879 3.17051 9.19435C3.10191 10.7144 3.08676 11.1709 3.08676 15.02C3.08676 18.8691 3.10191 19.3256 3.17051 20.8457C3.23433 22.2512 3.46803 23.0145 3.66505 23.5223C3.89506 24.1485 4.26194 24.7149 4.73868 25.1802C5.2019 25.6588 5.76612 26.0272 6.3898 26.2581C6.89551 26.456 7.65567 26.6906 9.05554 26.7547C10.5695 26.8236 11.0233 26.8388 14.8576 26.8388C18.6919 26.8388 19.1457 26.8236 20.6596 26.7547C22.0595 26.6906 22.8197 26.456 23.3255 26.2581C23.9954 25.997 24.4741 25.6847 24.9766 25.1802C25.4532 24.7151 25.8201 24.1485 26.0501 23.5223C26.2472 23.0145 26.4809 22.2512 26.5447 20.8457C26.6133 19.3256 26.6285 18.8691 26.6285 15.02C26.6285 11.1709 26.6133 10.7144 26.5447 9.19435C26.4809 7.78879 26.2472 7.02554 26.0501 6.51777C25.7901 5.84503 25.4791 5.36449 24.9766 4.85993C24.4741 4.35618 23.9954 4.04302 23.3255 3.78194C22.8197 3.58411 22.0595 3.34946 20.6596 3.28538ZM13.0244 19.464C13.6056 19.7058 14.2285 19.8301 14.8576 19.8301C16.1282 19.8301 17.3467 19.3233 18.2451 18.4213C19.1436 17.5192 19.6483 16.2957 19.6483 15.02C19.6483 13.7443 19.1436 12.5208 18.2451 11.6187C17.3467 10.7167 16.1282 10.2099 14.8576 10.2099C14.2285 10.2099 13.6056 10.3343 13.0244 10.576C12.443 10.8178 11.915 11.1721 11.4701 11.6187C11.0253 12.0654 10.6724 12.5956 10.4316 13.1792C10.1909 13.7628 10.067 14.3883 10.067 15.02C10.067 15.6517 10.1909 16.2772 10.4316 16.8608C10.6724 17.4444 11.0253 17.9746 11.4701 18.4213C11.915 18.8679 12.443 19.2223 13.0244 19.464ZM9.63933 9.78047C11.0233 8.39086 12.9004 7.61018 14.8576 7.61018C16.8149 7.61018 18.692 8.39086 20.0759 9.78047C21.4599 11.1701 22.2374 13.0549 22.2374 15.02C22.2374 16.9852 21.4599 18.8699 20.0759 20.2596C18.692 21.6492 16.8149 22.4299 14.8576 22.4299C12.9004 22.4299 11.0233 21.6492 9.63933 20.2596C8.25535 18.8699 7.47783 16.9852 7.47783 15.02C7.47783 13.0549 8.25535 11.1701 9.63933 9.78047ZM23.8738 8.71417C24.2009 8.38568 24.3847 7.94017 24.3847 7.47563C24.3847 7.01108 24.2009 6.56558 23.8738 6.2371C23.5466 5.90863 23.1029 5.72409 22.6402 5.72409C22.1776 5.72409 21.7338 5.90863 21.4068 6.2371C21.0795 6.56558 20.8958 7.01108 20.8958 7.47563C20.8958 7.94017 21.0795 8.38568 21.4068 8.71417C21.7338 9.04264 22.1776 9.22718 22.6402 9.22718C23.1029 9.22718 23.5466 9.04264 23.8738 8.71417Z" fill="white"/>
<path d="M29.2152 75.5808C29.2152 67.6169 22.7839 61.1648 14.8576 61.1648C6.92592 61.1648 0.5 67.6169 0.5 75.5808C0.5 82.7744 5.7486 88.739 12.6142 89.8193V79.7488H8.96829V75.5817H12.6142V72.4039C12.6142 68.7918 14.7544 66.797 18.0351 66.797C19.6064 66.797 21.2512 67.0781 21.2512 67.0781V70.6253H19.4377C17.6573 70.6253 17.101 71.738 17.101 72.8778V75.5808H21.0825L20.4427 79.7479H17.101V89.8184C23.9612 88.7381 29.2152 82.7735 29.2152 75.5799V75.5808Z" fill="white"/>
<path d="M8.59294 147.155C10.9503 147.234 13.2996 146.838 15.5019 145.99C17.7043 145.142 19.715 143.859 21.4152 142.218C23.1154 140.576 24.4707 138.609 25.4009 136.433C26.3311 134.257 26.8174 131.915 26.831 129.547C27.9113 128.205 28.7135 126.659 29.1905 125.001C29.2261 124.87 29.2232 124.731 29.1822 124.602C29.1412 124.473 29.0638 124.358 28.9594 124.272C28.8549 124.185 28.7279 124.131 28.5935 124.116C28.4591 124.1 28.3232 124.124 28.202 124.185C27.6368 124.458 27.0005 124.546 26.3828 124.437C25.765 124.328 25.1969 124.027 24.7585 123.576C24.1988 122.961 23.5219 122.465 22.7677 122.117C22.0135 121.769 21.1974 121.577 20.3679 121.551C19.5383 121.526 18.7121 121.668 17.9383 121.969C17.1644 122.27 16.4586 122.724 15.8627 123.304C15.0467 124.098 14.4491 125.089 14.1278 126.183C13.8066 127.277 13.7726 128.436 14.0293 129.547C8.6886 129.867 5.02186 127.322 2.08846 123.832C2.00034 123.732 1.88506 123.66 1.75671 123.624C1.62835 123.589 1.49248 123.592 1.36568 123.632C1.23887 123.673 1.12663 123.75 1.04265 123.854C0.958678 123.958 0.906602 124.084 0.892786 124.217C0.333958 127.329 0.737076 130.539 2.048 133.414C3.35892 136.29 5.51486 138.694 8.22627 140.304C6.40826 142.397 3.85521 143.705 1.10004 143.953C0.95243 143.978 0.81617 144.048 0.710329 144.155C0.604487 144.261 0.53436 144.397 0.509762 144.546C0.485164 144.694 0.507327 144.846 0.573148 144.981C0.638969 145.116 0.745155 145.227 0.876844 145.298C3.27381 146.501 5.9134 147.136 8.59294 147.155Z" fill="white"/>
</svg>
