<svg width="48" height="35" viewBox="0 0 48 35" fill="none" xmlns="http://www.w3.org/2000/svg">
<path d="M22.159 21.7244V25.6993C22.159 26.7319 22.726 27.6938 23.6332 28.1889L30.7208 32.0507C31.5713 32.5175 32.5919 32.5175 33.4424 32.0507L40.53 28.1889C41.4372 27.6938 42.0042 26.7319 42.0042 25.6993V21.7244L33.4424 26.3924C32.5919 26.8592 31.5713 26.8592 30.7208 26.3924L22.159 21.7244ZM30.7208 8.05971L18.7711 14.5667C17.7931 15.1042 17.7931 16.5188 18.7711 17.0563L30.7208 23.5633C31.5713 24.0301 32.5919 24.0301 33.4424 23.5633L44.8392 17.3534V25.7134C44.8392 26.4914 45.4771 27.128 46.2567 27.128C47.0364 27.128 47.6743 26.4914 47.6743 25.7134V16.6461C47.6743 16.1227 47.3908 15.6559 46.9371 15.4013L33.4424 8.05971C32.5919 7.60705 31.5713 7.60705 30.7208 8.05971Z" fill="white"/>
</svg>
