<svg width="20" height="23" viewBox="0 0 20 23" fill="none" xmlns="http://www.w3.org/2000/svg">
<rect y="9.48608" width="3.10013" height="9.2511" fill="white"/>
<rect x="6.90161" y="11.4539" width="2.97156" height="11.1559" fill="white"/>
<path d="M6.91742 11.4618C6.91742 10.2196 7.27237 9.00532 7.93738 7.97247C8.60239 6.93962 9.5476 6.13461 10.6535 5.65924C11.7593 5.18387 12.9762 5.05949 14.1502 5.30183C15.3242 5.54417 16.4026 6.14235 17.249 7.02072C18.0954 7.89908 18.6718 9.01819 18.9053 10.2365C19.1388 11.4549 19.019 12.7177 18.5609 13.8653C18.1028 15.013 17.3271 15.9939 16.3319 16.684C15.3366 17.3741 14.1665 17.7425 12.9695 17.7425L12.9695 14.6756C13.582 14.6756 14.1807 14.4871 14.69 14.134C15.1993 13.7809 15.5962 13.2789 15.8306 12.6917C16.065 12.1044 16.1263 11.4583 16.0069 10.8348C15.8874 10.2114 15.5924 9.63877 15.1593 9.18931C14.7262 8.73985 14.1744 8.43376 13.5737 8.30975C12.9729 8.18575 12.3503 8.24939 11.7844 8.49264C11.2185 8.73588 10.7349 9.14781 10.3946 9.67632C10.0543 10.2048 9.87265 10.8262 9.87265 11.4618L6.91742 11.4618Z" fill="white"/>
<path d="M8.75037 0.5C7.60126 0.5 6.46339 0.732958 5.40175 1.18557C4.3401 1.63819 3.37547 2.3016 2.56292 3.13792C1.75038 3.97425 1.10583 4.96711 0.666082 6.05982C0.226335 7.15253 -1.73511e-07 8.32369 0 9.50643L3.10099 9.50643C3.10099 8.74283 3.24712 7.98671 3.53103 7.28124C3.81493 6.57577 4.23106 5.93476 4.75566 5.39482C5.28025 4.85488 5.90303 4.42657 6.58845 4.13435C7.27386 3.84214 8.00848 3.69174 8.75037 3.69174L8.75037 0.5Z" fill="white"/>
</svg>
