<svg width="36" height="62" viewBox="0 0 36 62" fill="none" xmlns="http://www.w3.org/2000/svg">
<path d="M34.3649 1.32251C35.1851 2.14299 35.6459 3.25565 35.6459 4.4158C35.6459 5.57596 35.1851 6.68862 34.3649 7.50909L11.2068 30.6672L34.3649 53.8253C35.1618 54.6505 35.6028 55.7557 35.5929 56.9029C35.5829 58.05 35.1228 59.1474 34.3116 59.9586C33.5004 60.7698 32.403 61.23 31.2558 61.2399C30.1087 61.2499 29.0035 60.8089 28.1783 60.0119L1.92688 33.7605C1.10665 32.94 0.645874 31.8274 0.645874 30.6672C0.645874 29.5071 1.10665 28.3944 1.92688 27.5739L28.1783 1.32251C28.9988 0.502284 30.1114 0.0415039 31.2716 0.0415039C32.4317 0.0415039 33.5444 0.502284 34.3649 1.32251Z" fill="white"/>
</svg>
